<svg width="48" height="48" viewBox="0 0 48 48" fill="none" xmlns="http://www.w3.org/2000/svg">
<g filter="url(#filter0_d_40000030_1460)">
<path d="M23.9609 8.00006C6.79136 8.29449 1.86457 31.0758 17.1865 38.5054C23.1073 41.4715 31.1877 39.8673 35.5147 35.0693C45.195 25.1009 38.0125 7.96366 23.9609 8.00006ZM25.9846 13.9914H30.8211C30.9425 13.989 31.06 13.9484 31.1568 13.8753C31.2537 13.8022 31.325 13.7004 31.3605 13.5843C31.396 13.4683 31.3939 13.344 31.3545 13.2292C31.3152 13.1144 31.2405 13.015 31.1413 12.9451L27.2653 10.3554L27.5397 9.58363C29.5696 10.0837 31.4697 11.0108 33.113 12.3032C34.7564 13.5956 36.1053 15.2236 37.0698 17.0785L33.4109 14.1972C33.3137 14.1243 33.1959 14.084 33.0743 14.082C32.9528 14.0801 32.8338 14.1166 32.7343 14.1864C32.6347 14.2561 32.5598 14.3555 32.5201 14.4704C32.4804 14.5853 32.4781 14.7098 32.5134 14.8261L34.0112 19.4282L30.6268 22.0179H25.9846L24.5669 18.0046L25.9846 13.9914ZM20.3821 9.58362L20.6565 10.3554L16.7804 12.9451C16.6812 13.015 16.6066 13.1144 16.5672 13.2292C16.5278 13.344 16.5258 13.4683 16.5613 13.5843C16.5968 13.7003 16.6681 13.8022 16.7649 13.8753C16.8618 13.9484 16.9793 13.989 17.1006 13.9913L21.9371 13.9913L23.3549 18.0046L21.9371 22.0179H17.295L13.9106 19.4282L15.4027 14.8261C15.438 14.7098 15.4356 14.5853 15.396 14.4704C15.3563 14.3555 15.2814 14.2561 15.1818 14.1863C15.0823 14.1166 14.9633 14.0801 14.8417 14.082C14.7202 14.084 14.6024 14.1243 14.5051 14.1971L10.8463 17.0785C11.8125 15.2238 13.1626 13.5962 14.8068 12.3039C16.451 11.0116 18.3516 10.0843 20.3821 9.58362ZM15.7285 32.0625L11.8182 29.2212C11.7182 29.1515 11.5986 29.1153 11.4768 29.1177C11.3549 29.1202 11.2369 29.1612 11.1398 29.2348C11.0426 29.3085 10.9713 29.411 10.9361 29.5277C10.9008 29.6444 10.9034 29.7692 10.9435 29.8843L12.0583 32.9029C10.224 30.4574 9.19335 27.5033 9.10837 24.4475L10.0688 27.8491C10.1035 27.9656 10.1742 28.068 10.2708 28.1416C10.3675 28.2153 10.485 28.2563 10.6064 28.2588C10.7279 28.2614 10.847 28.2253 10.9466 28.1558C11.0462 28.0862 11.1212 27.9869 11.1607 27.872L12.6585 23.2699L16.9348 23.167L20.6508 25.6539L19.2444 29.6385L15.7285 32.0625ZM25.3501 38.3282L28.3343 38.2139C25.4651 39.0963 22.396 39.0903 19.5303 38.1968L22.5602 38.3168C22.6819 38.3195 22.8014 38.2836 22.9014 38.2141C23.0014 38.1447 23.0768 38.0454 23.1168 37.9304C23.1568 37.8155 23.1593 37.6908 23.124 37.5743C23.0888 37.4578 23.0174 37.3554 22.9204 37.282L19.0044 34.4408L20.2106 30.3703L23.9609 27.8663L27.6826 30.3532L28.9061 34.4579L24.99 37.2935C24.8932 37.3671 24.8222 37.4694 24.7871 37.5858C24.752 37.7022 24.7546 37.8267 24.7946 37.9415C24.8345 38.0563 24.9098 38.1556 25.0096 38.225C25.1094 38.2945 25.2286 38.3306 25.3501 38.3282ZM36.7724 29.2383C36.6744 29.1651 36.5556 29.125 36.4332 29.124C36.3108 29.1229 36.1913 29.161 36.0921 29.2326L32.1761 32.0739L28.6888 29.6728L27.2709 25.6538L30.9869 23.167L35.2632 23.2756L36.7553 27.8777C36.7948 27.9926 36.8698 28.092 36.9694 28.1615C37.069 28.231 37.1881 28.2671 37.3096 28.2645C37.4311 28.262 37.5486 28.2209 37.6452 28.1473C37.7418 28.0737 37.8125 27.9713 37.8472 27.8548L38.8134 24.4304C38.7324 27.5002 37.6952 30.4681 35.8463 32.92L36.9668 29.8958C37.0083 29.7797 37.0119 29.6535 36.9769 29.5353C36.942 29.4171 36.8704 29.3131 36.7724 29.2383Z" fill="white"/>
</g>
<defs>
<filter id="filter0_d_40000030_1460" x="-4" y="-4" width="56" height="56" filterUnits="userSpaceOnUse" color-interpolation-filters="sRGB">
<feFlood flood-opacity="0" result="BackgroundImageFix"/>
<feColorMatrix in="SourceAlpha" type="matrix" values="0 0 0 0 0 0 0 0 0 0 0 0 0 0 0 0 0 0 127 0" result="hardAlpha"/>
<feOffset/>
<feGaussianBlur stdDeviation="4"/>
<feComposite in2="hardAlpha" operator="out"/>
<feColorMatrix type="matrix" values="0 0 0 0 0 0 0 0 0 0 0 0 0 0 0 0 0 0 0.7 0"/>
<feBlend mode="normal" in2="BackgroundImageFix" result="effect1_dropShadow_40000030_1460"/>
<feBlend mode="normal" in="SourceGraphic" in2="effect1_dropShadow_40000030_1460" result="shape"/>
</filter>
</defs>
</svg>
