<svg xmlns="http://www.w3.org/2000/svg" viewBox="0 0 750 500"><g id="freepik--Table--inject-362"><path d="M716.89,439.94c0,.15-151.29.26-337.87.26s-337.91-.11-337.91-.26,151.26-.26,337.91-.26S716.89,439.8,716.89,439.94Z" style="fill:#263238"></path></g><g id="freepik--speech-bubble-3--inject-362"><path d="M648.48,229.71l2.6-11.09a36.69,36.69,0,1,1,9,9.54h0Z" style="fill:#fff"></path><path d="M648.48,229.71l.74-.08,2.21-.27,8.71-1.09.17,0-.11-.13v0l-.13.13a36.56,36.56,0,0,0,22.36,7.17,40.4,40.4,0,0,0,6.07-.64A36.47,36.47,0,0,0,700.92,230a36.94,36.94,0,0,0,17-24.47,36.46,36.46,0,0,0-.69-16.77,36,36,0,0,0-8.6-15.32c-.53-.54-1-1.1-1.58-1.63l-1.71-1.48-.85-.73-.91-.66-1.83-1.29c-.62-.41-1.28-.75-1.92-1.12a17.51,17.51,0,0,0-2-1,34.67,34.67,0,0,0-4.06-1.67A37.41,37.41,0,0,0,677,162.1a36.85,36.85,0,0,0-31,27.82,39.88,39.88,0,0,0-1,6,49.19,49.19,0,0,0,0,5.71,36.57,36.57,0,0,0,5.87,17v-.07c-.82,3.62-1.46,6.4-1.89,8.3-.2.92-.36,1.62-.47,2.11l-.15.7s.07-.25.19-.73.29-1.2.52-2.13c.45-1.88,1.12-4.63,2-8.21v0l0,0a36.51,36.51,0,0,1-5.74-16.93,48.28,48.28,0,0,1,0-5.65,39.16,39.16,0,0,1,1-6,36.56,36.56,0,0,1,30.7-27.48,36.94,36.94,0,0,1,16.59,1.75,31.61,31.61,0,0,1,4,1.65,17.86,17.86,0,0,1,1.93,1c.63.37,1.29.71,1.9,1.11l1.8,1.28.91.64.84.73,1.69,1.46c.53.53,1,1.08,1.56,1.61a35.76,35.76,0,0,1,8.5,15.13,36.38,36.38,0,0,1-28.39,45.52,39.7,39.7,0,0,1-6,.66,35.74,35.74,0,0,1-5.64-.32,36.73,36.73,0,0,1-16.6-6.69l-.55-.4.42.54h0l.06-.15-8.63,1.2-2.24.32Z" style="fill:#263238"></path><path d="M697.29,194.79a9.5,9.5,0,0,0-2.5-5.09,9.11,9.11,0,0,0-4.76-2.84,7.46,7.46,0,0,0-5.71,1.21,7.2,7.2,0,0,0-2.29,2.67,7.35,7.35,0,0,0-7.95-3.36,9,9,0,0,0-4.68,3,9.42,9.42,0,0,0-2.35,5.16,11.45,11.45,0,0,0,1.53,7,16.16,16.16,0,0,0,5.67,5.16c3.69,2.15,8.54,4.84,8.54,4.84s4-3.1,7.65-5.35a16.25,16.25,0,0,0,5.52-5.32A11.54,11.54,0,0,0,697.29,194.79Z" style="fill:#FF725E"></path></g><g id="freepik--speech-bubble-2--inject-362"><path d="M330,171.64l-3.26-10.91a38,38,0,1,0-9.1,10.12h0Z" style="fill:#fff"></path><path d="M330,171.64l-.78,0-2.35-.13-9.25-.51h-.21l.13-.17h0l.16.15a37.84,37.84,0,0,1-17.08,7.52,36.93,36.93,0,0,1-5.87.52,42.82,42.82,0,0,1-6.29-.5,37.61,37.61,0,0,1-13-4.53,38.34,38.34,0,0,1-18.29-24.75,38.15,38.15,0,0,1,23.59-43.95,38.9,38.9,0,0,1,17.42-2.36,38.16,38.16,0,0,1,33,28,42.18,42.18,0,0,1,1.16,6.25,49.3,49.3,0,0,1,.11,5.92,37.73,37.73,0,0,1-5.63,17.71v-.09c1,3.56,1.83,6.3,2.37,8.17l.6,2.08.19.7s-.09-.25-.23-.73-.37-1.18-.66-2.09c-.56-1.85-1.4-4.56-2.47-8.06l0,0,0,0a37.91,37.91,0,0,0,5.47-17.62,50.51,50.51,0,0,0-.13-5.86,41.18,41.18,0,0,0-1.18-6.18,37.81,37.81,0,0,0-32.65-27.63A38.27,38.27,0,0,0,281,105.72a37.3,37.3,0,0,0-14.89,10.39,37.7,37.7,0,0,0,9.62,57.45,37.36,37.36,0,0,0,12.82,4.52,40.59,40.59,0,0,0,6.23.52,37.52,37.52,0,0,0,5.81-.49,37.94,37.94,0,0,0,17-7.35l.69-.53-.53.68v0l-.09-.18,9.17.64,2.38.18Z" style="fill:#263238"></path><path d="M286.65,140.86a4.69,4.69,0,1,1-4.68-4.68A4.69,4.69,0,0,1,286.65,140.86Z" style="fill:#263238"></path><path d="M300.66,140.86a4.69,4.69,0,1,1-4.69-4.68A4.69,4.69,0,0,1,300.66,140.86Z" style="fill:#263238"></path><path d="M314.69,140.86a4.69,4.69,0,1,1-4.69-4.68A4.69,4.69,0,0,1,314.69,140.86Z" style="fill:#263238"></path></g><g id="freepik--speech-bubble-1--inject-362"><path d="M107.57,222.24,104,211.5a36.11,36.11,0,1,0-8.46,9.78v0Z" style="fill:#fff"></path><path d="M107.57,222.24l-.75,0-2.29-.15-9.06-.6a.16.16,0,0,1-.15-.17.19.19,0,0,1,0-.08v0l.23.21a36,36,0,0,1-16.19,7.51,35.51,35.51,0,0,1-11.6.23,36.3,36.3,0,0,1-8.55-69.6A36.87,36.87,0,0,1,75.75,157a36.21,36.21,0,0,1,28.33,54.6v-.13l2.63,8.08c.28.87.5,1.55.65,2s.2.67.2.67-.1-.25-.26-.72-.42-1.18-.74-2.06l-2.77-7.91a.2.2,0,0,1,0-.13A35.86,35.86,0,0,0,75.7,157.67a36.29,36.29,0,0,0-16.18,2.53,35.24,35.24,0,0,0-13.86,10.06,35.68,35.68,0,0,0,22.21,58.33,34.91,34.91,0,0,0,11.44-.15,36,36,0,0,0,16.08-7.28.15.15,0,0,1,.22,0,.17.17,0,0,1,0,.2h0l-.12-.25,8.94.8,2.33.21Z" style="fill:#263238"></path><path d="M62.65,185.91h5.48a4.66,4.66,0,0,1,4.78-4.69,4.45,4.45,0,0,1,4.3,2.83,4.92,4.92,0,0,1-.39,4.44c-.93,1.53-3,2.93-6.66,2.27v12.36h5.42v-7.24a10.58,10.58,0,0,0,7.6-10.34c0-8-7.19-9.87-10.27-9.87C70.56,175.67,62.55,176.24,62.65,185.91Z" style="fill:#263238"></path><rect x="70.14" y="205.67" width="5.5" height="5.14" style="fill:#263238"></rect></g><g id="freepik--character-3--inject-362"><path d="M639.75,393.91s6-2,8.8-5.1,6-7,6-7l-25.2-15.25c0,.09-3.17,8.13-3.17,8.13l6.17,13.72Z" style="fill:#ffbf9d"></path><path d="M644.66,281.52s16.86,50.32,21,70.93c3.55,17.6-2.84,28.89-12.82,29.95a23.12,23.12,0,0,1-19.55-6.87c-2.93-3.3-6.58-12.52-6.58-12.52l-23.35-86.4s5.52,3.7,11.1,7.49c8.43,5.74,15.29,28.41,15.29,28.41l-7.65-27.39Z" style="fill:#ffbf9d"></path><path d="M629.39,310.05a3.18,3.18,0,0,1,.19.61c.12.46.28,1,.48,1.77.43,1.59,1,3.79,1.78,6.47s1.63,6,2.25,9.73a35.89,35.89,0,0,1,.5,5.89c0,2,.07,4.16.15,6.32a60.1,60.1,0,0,0,1.47,12A30.25,30.25,0,0,0,640,362a22.42,22.42,0,0,0,4.3,5.08c1.2,1,2,1.47,1.93,1.52a2.32,2.32,0,0,1-.56-.31,15.62,15.62,0,0,1-1.5-1.06,21.13,21.13,0,0,1-4.48-5,29.78,29.78,0,0,1-3.9-9.2,58.19,58.19,0,0,1-1.53-12.14c-.08-2.16-.1-4.28-.14-6.32a36.22,36.22,0,0,0-.46-5.82c-.59-3.69-1.45-7-2.14-9.71s-1.27-5-1.62-6.53c-.18-.77-.3-1.37-.38-1.78A2.54,2.54,0,0,1,629.39,310.05Z" style="fill:#ff9a6c"></path><path d="M630.43,369.67c.1-.05.65,1.54,2.07,3.79a20.78,20.78,0,0,0,7.67,6.8,22,22,0,0,0,10.07,2.05c2.67,0,4.31-.28,4.32-.19a5.54,5.54,0,0,1-1.14.25,30.63,30.63,0,0,1-3.18.31,21.13,21.13,0,0,1-10.3-1.95,20,20,0,0,1-7.75-7.07,18.09,18.09,0,0,1-1.4-2.88A4.83,4.83,0,0,1,630.43,369.67Z" style="fill:#ff9a6c"></path><path d="M644.62,283l-21,4s.24-1.15-1.39-1.62-3.16-1.91-5.92-3.91a43.43,43.43,0,0,1-5.72-5.34s-10.29-4-11.25-5.91-2.86-5.34,1.91-5.43a78.2,78.2,0,0,1,9.53.47l6.48-9.53,11.44-12.87,3.53,1.62s9.42,15.44,9.52,15.83S644.62,283,644.62,283Z" style="fill:#ffbf9d"></path><path d="M626.6,238.11c0,1.44,7.22,27.87,7,29.45s-21.84,10.42-24.88,9.63-5.81-14.66-5.81-14.66-8.46-30.89-8.06-32.21,22.59-15.19,24.57-13.87S626.6,238.11,626.6,238.11Z" style="fill:#263238"></path><path d="M619.86,224.83l10.08,39.32a.93.93,0,0,1-.54,1.06c-3.73,1.56-20.66,8.61-21.07,8s-3-8.41-3-8.41l-6.76-24.09a.92.92,0,0,1,.5-1.18Z" style="fill:#455a64"></path><path d="M644.62,283s.7-9.72,1.37-16.11-.48-8.7-1.43-10.86-5.16-4.55-5.82-4.58a19.92,19.92,0,0,0-1.49-5.13,6.16,6.16,0,0,0-3.15-2.73,10.29,10.29,0,0,0-1-4.21,2.69,2.69,0,0,0-1.37-1c-2.66-1.08-5.13-.19-7.14,1.86a7,7,0,0,0-2.16,4.14c-.17,2.43,1.58,3.59,4.06,1.78,1.82-1.33,1.18-.7,1.18-.7s4-1.94,2.77-.32-4.4,6.6-4.77,8.77.19,3.53,1.91,3.62,5.8-5.14,5.8-5.14-4.83,7.53-4.48,9.38c.28,1.45,2.35,2.07,3.64,1s5.1-4.95,5.1-4.95-1.1,17.16,1.19,18.68S644.62,283,644.62,283Z" style="fill:#ffbf9d"></path><path d="M630,258.36a6.32,6.32,0,0,1,.72-1.71c.26-.51.57-1.12.94-1.78a16.77,16.77,0,0,1,1.41-2.05,4.79,4.79,0,0,1,2.05-1.52,4.54,4.54,0,0,1,2.06-.24,4.33,4.33,0,0,1,1.81.46,12.78,12.78,0,0,1-1.83-.1,4.43,4.43,0,0,0-3.69,1.72c-.51.69-1,1.34-1.4,2s-.7,1.17-1,1.71A7.26,7.26,0,0,1,630,258.36Z" style="fill:#ff9a6c"></path><path d="M626.6,251.56a8.57,8.57,0,0,1,.81-1.9c.32-.62.65-1.29,1-2l.61-1.16.33-.62a3.5,3.5,0,0,1,.43-.63,6,6,0,0,1,2.3-1.66,3.28,3.28,0,0,1,2.32-.07,2.92,2.92,0,0,1,1.66,1.27,8.77,8.77,0,0,0-1.77-.92c-1.15-.41-2.91.3-4.11,1.71a4.8,4.8,0,0,0-.38.54l-.33.61c-.21.4-.43.78-.63,1.16-.39.68-.76,1.33-1.1,1.94A7.67,7.67,0,0,1,626.6,251.56Z" style="fill:#ff9a6c"></path><path d="M630.19,263.15a2.83,2.83,0,0,0,.66.1,3.64,3.64,0,0,0,1.71-.67A24.21,24.21,0,0,0,637.4,258l.31-.36.1.46c.49,2.16-.36,4.59-1.62,6.72a32.38,32.38,0,0,0-3,5.5,12.74,12.74,0,0,0-.54,5c.24,2.9.67,4.69.56,4.7a5.87,5.87,0,0,1-.34-1.23,27.89,27.89,0,0,1-.59-3.44,12.66,12.66,0,0,1,.46-5.19,30,30,0,0,1,3-5.61c1.24-2.09,2-4.38,1.61-6.36l.41.1a21.9,21.9,0,0,1-5.06,4.52,3.47,3.47,0,0,1-1.86.58,1.2,1.2,0,0,1-.5-.14C630.23,263.2,630.19,263.16,630.19,263.15Z" style="fill:#ff9a6c"></path><path d="M634.91,249.65a16.74,16.74,0,0,1-2,3.19,18.08,18.08,0,0,1-1.63,2.08c-.45.49-.67.84-.74.81s.06-.46.45-1l1.5-2.16C633.7,250.84,634.78,249.54,634.91,249.65Z" style="fill:#ff9a6c"></path><path d="M605.64,276.61c1.88,1.51,13.73,23.92,19.75,34.45s10.91,26.08,9.33,41.74c-1.1,10.86-7.31,22.45-7.31,22.45l.23,18.54,15.74,45.47H533.54l12.25-38.16c1.1,0-2.91-20.86-6.38-32.51-8.06-27.1-14.21-57.52-12.15-76,1.85-16.57,19.64-24.3,29.46-27.65,3-1,1.9-1.29,4.16-1.73C574.52,260.51,605.64,276.61,605.64,276.61Z" style="fill:#455a64"></path><path d="M605.77,375c-.06-.08,1.43-1,3.57-2.88a40,40,0,0,0,3.55-3.46,43,43,0,0,0,3.74-4.78,43.49,43.49,0,0,0,3-5.28,39.9,39.9,0,0,0,1.84-4.6c.88-2.69,1.19-4.42,1.29-4.4a5.77,5.77,0,0,1-.16,1.22,27,27,0,0,1-.78,3.29,35.62,35.62,0,0,1-1.75,4.69,38.25,38.25,0,0,1-6.8,10.19,36.38,36.38,0,0,1-3.67,3.41,24.74,24.74,0,0,1-2.74,2A5.45,5.45,0,0,1,605.77,375Z" style="fill:#263238"></path><path d="M544.42,349.6s21,51.76,36.13,57.73,39.75-3.44,39.75-3.44l-51.6-64.16Z" style="opacity:0.30000000000000004"></path><path d="M575.05,300.14c10.17,18.5,35.66,72,35.66,72l16.7,3.15,13,18.66s-21,14.28-39.65,13.38-26.61-19.68-35.71-32.45c-8.51-11.94-26.38-45.5-26.38-45.5Z" style="fill:#ffbf9d"></path><path d="M564.16,132.68a10.35,10.35,0,0,0-8.52-3.47c-1.28.11-2.7.43-3.78-.28a8.12,8.12,0,0,1-1.72-2.16,5.24,5.24,0,0,0-7.52-.53,6.24,6.24,0,0,1-1.55,1.4c-2.56,1.2-5.11-3.61-7.66-2.39a6,6,0,0,1,2.69,2.31,2.71,2.71,0,0,1-.45,3.3c-2.43,1.95-6.07-2.81-8.75-1.22-1.45.85-1.74,3.23-3.39,3.56a5.84,5.84,0,0,1-1.93-.23,4.31,4.31,0,0,0-4.73,3.5c-.27,1.85.56,4.15-.88,5.33-.9.73-2.2.55-3.33.33a11.18,11.18,0,0,0,1,5,6.75,6.75,0,0,0-2.66,9,14.49,14.49,0,0,0-4.06,3.81,5,5,0,0,0-.27,5.3,4.53,4.53,0,0,1,.66,1.09,2.52,2.52,0,0,1-.05,1.36c-.43,1.72-1.27,3.37-1.29,5.15s1.2,3.77,3,3.7c.41,0,.87-.14,1.21.1a1.23,1.23,0,0,1,.39.82,12.2,12.2,0,0,1-.42,3.79,5.08,5.08,0,0,0,.41,3.71c.7,1.07,2.42,1.5,3.26.54L512,191.31c-.35,1.16-.65,2.56.16,3.46,1.07,1.17,3.13.37,4-.93s1.21-3,2.15-4.24a9.67,9.67,0,0,0,1.14-1.57c.21-.47.3-1,.71-1.34.83-.62,2,.54,1.85,1.56a5.41,5.41,0,0,1-1.68,2.53c-.69.78-1.26,1.89-.77,2.8.23.44.68.74.9,1.18.78,1.54-1.49,2.91-1.82,4.6-.25,1.25.62,2.42,1.48,3.36,1,1.14,3.14,2.12,3.89.76a13.2,13.2,0,0,0,.4-1.56,3.89,3.89,0,0,1,1.29-1.36,8.13,8.13,0,0,0,2.56-3.87c-1.38,1.56-2.85,3.64-2,5.54a8.93,8.93,0,0,0,1.63,2c1.13,1.27,1.8,2.91,2.91,4.2s3,2.23,4.51,1.46a3.84,3.84,0,0,0,6.26,4.09,3.29,3.29,0,0,1,1.09-.88,2.76,2.76,0,0,1,1.5.1,8.33,8.33,0,0,0,8.17-2.87l-1.51-.61c3-.25,6.15-.55,8.71-2.15s4.33-4.92,3.15-7.7c-.51-1.21-1.53-2.47-1-3.66A3.23,3.23,0,0,1,564,194.8l10.84-3.29c1.75-.54,3.6-1.13,4.81-2.5s1.42-3.8-.06-4.88a9.84,9.84,0,0,1,3.88-3.85c1.82-1,3.91-1.37,5.77-2.28s3.6-2.61,3.56-4.68-2.82-3.79-4.31-2.35c.42-3.1,6-3.05,6.58-6.12.5-2.49-2.65-3.93-4.22-5.93.37-.86,1.29-1.38,1.69-2.22.84-1.77-1-3.66-2.69-4.58s-3.85-1.87-4.2-3.8,1.42-4.11.45-5.87a2.22,2.22,0,0,0-2.88-.86c-1.27-3.64-8.14-1.24-10-4.64a1.32,1.32,0,0,1-.19-.88,1.46,1.46,0,0,1,.37-.69,15.93,15.93,0,0,1,3.07-2.15c1-.72,1.91-2,1.52-3.16s-2.62-1.25-2.65,0a2.75,2.75,0,0,0-4.26.87,3,3,0,0,0-3.72-.5,8.58,8.58,0,0,0-2.79,2.92" style="fill:#263238"></path><path d="M545.45,171.56c1.45-5.07,5.52-9,9.92-11.89a13.48,13.48,0,0,1,6-2.53c2.2-.2,4.64.74,5.61,2.72l-.54,3.66c.07,5.88-4.77,10.49-7.29,15.8-1.09,2.31-2.05,5.11-4.46,6a5.47,5.47,0,0,1-3.91-.3C546,182.93,544,176.62,545.45,171.56Z" style="fill:#455a64"></path><path d="M543.1,198.55a11.78,11.78,0,0,1,2.28-14.94c-1.93-2.87-.82-7,1.58-9.46s5.77-3.76,9-5c2.36-7.75,11.68-12.57,19.37-10,4.59-5.68,13.38-5.91,20.19-3.3a18.71,18.71,0,0,0,5.09,1.56,30.05,30.05,0,0,0,3.91-.22c7.18-.37,13.82,5.2,16.05,12a13.25,13.25,0,0,0,1.26,3.2,17.53,17.53,0,0,0,3.28,3.09,11.4,11.4,0,0,1,3.65,8.75c-.11,2.76-1.23,5.62-.27,8.22.48,1.3,1.45,2.4,1.8,3.75,1,3.89-3.52,7.42-3.06,11.42.09.82.39,1.59.55,2.4a7,7,0,0,1-.83,4.86c-.66,1.11-1.65,2.1-1.83,3.39a11.13,11.13,0,0,0,.34,2.91c.29,2.39-5.52,11-7.66,12.14L557.14,229a11.38,11.38,0,0,1-8-10.48,4.13,4.13,0,0,0-.38-2.27,4.82,4.82,0,0,0-1.57-1.21c-3.73-2.42-3.76-7.82-3-12.2a5.51,5.51,0,0,0,.12-1.85A6.94,6.94,0,0,0,543.1,198.55Z" style="fill:#263238"></path><path d="M560.38,200.06c.7-10.75,8.44-22.53,19.53-26.9,7-2.76,12.24-2.35,15.8-2.47a24.58,24.58,0,0,1,14.06,4.17c3.28,1.06,14.61,13.28,14.24,25.5-.4,13.58-1.42,30.14-4,40.06-5.1,20-20.86,21.09-20.86,21.09s-.78,16.12-.78,16.12l.65,12.79-40.28-25.24Z" style="fill:#ffbf9d"></path><path d="M590.05,234.58a4.29,4.29,0,0,1,1.58-2.59,4.38,4.38,0,0,1,5.32-.1,5.84,5.84,0,0,1,2,5.58h0a5.3,5.3,0,0,1-3.9,2.07c-.23,0-.47,0-.71,0a4.81,4.81,0,0,1-3.18-1.4A4.28,4.28,0,0,1,590.05,234.58Z" style="fill:#ff9a6c"></path><path d="M617.82,218.05a2.61,2.61,0,0,1-2.75,2.38,2.49,2.49,0,0,1-2.46-2.59,2.62,2.62,0,0,1,2.75-2.39A2.5,2.5,0,0,1,617.82,218.05Z" style="fill:#263238"></path><path d="M618.73,207.7c-.35.31-2.18-1.33-5-1.58s-5,1-5.24.59c-.14-.17.25-.75,1.2-1.32a7.21,7.21,0,0,1,4.24-.88,6.8,6.8,0,0,1,3.92,1.68C618.67,206.93,618.91,207.57,618.73,207.7Z" style="fill:#263238"></path><path d="M600.33,228.26c0-.16,1.77-.3,4.62-.4.72,0,1.41-.09,1.57-.56a3.61,3.61,0,0,0-.28-2.16q-.76-2.69-1.6-5.63c-2.22-8-3.75-14.57-3.43-14.66s2.38,6.34,4.6,14.35q.8,3,1.51,5.65a4.09,4.09,0,0,1,.11,2.84,1.8,1.8,0,0,1-1.27.93,4.83,4.83,0,0,1-1.23.06C602.09,228.57,600.33,228.42,600.33,228.26Z" style="fill:#263238"></path><path d="M599.19,261.51a51.7,51.7,0,0,1-26.45-9.75S578.55,267,599,267Z" style="fill:#ff9a6c"></path><path d="M591.93,229.43c.45,0,.18,3,2.58,5.44s5.65,2.36,5.64,2.79c0,.19-.78.52-2.15.43a7.59,7.59,0,0,1-4.72-2.15,6.63,6.63,0,0,1-2-4.55C591.31,230.11,591.72,229.39,591.93,229.43Z" style="fill:#263238"></path><path d="M618.58,197.13c-.54.64-2.63,0-5.15,0s-4.66.44-5.15-.23c-.22-.32.12-1,1.05-1.57a7.55,7.55,0,0,1,4.18-1,7.44,7.44,0,0,1,4.11,1.27C618.52,196.16,618.81,196.81,618.58,197.13Z" style="fill:#263238"></path><path d="M587.08,215.92a2.61,2.61,0,0,0,2.37,2.76,2.48,2.48,0,0,0,2.81-2.2,2.61,2.61,0,0,0-2.36-2.77A2.51,2.51,0,0,0,587.08,215.92Z" style="fill:#263238"></path><path d="M580.39,205.25c.3.36,2.36-1,5.16-.83s4.78,1.68,5.1,1.35c.16-.14-.14-.77-1-1.48a7.25,7.25,0,0,0-4.07-1.5,6.94,6.94,0,0,0-4.13,1.09C580.57,204.49,580.24,205.09,580.39,205.25Z" style="fill:#263238"></path><path d="M580.47,195.81c.51.66,2.71.12,5.32.24s4.77.69,5.32,0c.24-.31-.07-1-1-1.62a8.52,8.52,0,0,0-8.58-.24C580.58,194.84,580.24,195.48,580.47,195.81Z" style="fill:#263238"></path><path d="M562,219.56c.13-1.51-1.28-5.23-2.75-5.6-3.92-1-11.12-1.34-12.12,8.76-1.37,13.8,12.77,12.33,12.83,11.94S561.48,224.77,562,219.56Z" style="fill:#ffbf9d"></path><path d="M556.6,229.24c-.05-.05-.25.14-.68.29a2.43,2.43,0,0,1-1.8-.14c-1.4-.68-2.4-3.12-2.22-5.61a8.07,8.07,0,0,1,1-3.38,2.82,2.82,0,0,1,2-1.67,1.24,1.24,0,0,1,1.35.8c.15.41,0,.68.1.71s.32-.21.27-.79a1.55,1.55,0,0,0-.46-.92,1.85,1.85,0,0,0-1.3-.48,3.4,3.4,0,0,0-2.72,1.89,8.16,8.16,0,0,0-1.21,3.77c-.19,2.78,1,5.53,2.91,6.3a2.6,2.6,0,0,0,2.23-.14C556.55,229.57,556.65,229.27,556.6,229.24Z" style="fill:#ff9a6c"></path><path d="M627.15,200.84c-2.63-2-4.19-4.54-3.71-7.81-1.9.38-3.56-2.17-4.49-3.87s-2.18-2.63-1.92-4.56a2.16,2.16,0,0,0,0-1.13c-.23-.56-.87-.79-1.43-1a9.3,9.3,0,0,1-5.5-7,19.66,19.66,0,0,1-9.6.69,7.51,7.51,0,0,1-12.61-1.72,6.73,6.73,0,0,1-4.79,2.9,19.9,19.9,0,0,1-5.76-.22,7.94,7.94,0,0,1-6,8.49c-.5.11-1.09.2-1.35.64a2,2,0,0,0,.07,1.56,6.28,6.28,0,0,1-4.91,7.56A4.66,4.66,0,0,1,564,202.6c-.53.26-1.22.56-1.19,1.15a1.32,1.32,0,0,0,.24.62,9,9,0,0,1,1.76,4.76c0,1.72-1.36,3.53-3.07,3.44a4.46,4.46,0,0,1,1.47,3.19c-.09,1.2-1.41,2.31-2.49,1.78-.46-.23-7.22-2.22-7.48-2.66-3.42-5.66,2-11.07,3-17.61a42.93,42.93,0,0,1,7.69-18.11,31.27,31.27,0,0,1,5.51-6.2,41.93,41.93,0,0,1,8.11-4.89c3.69-1.85,7.48-3.69,11.56-4.26,7.62-1.07,15.11,2.35,21.77,6.2a32.64,32.64,0,0,1,7.09,5.11,29.44,29.44,0,0,1,5.56,8.84c2.06,4.62,3.67,9.54,3.7,14.6" style="fill:#263238"></path><path d="M630.31,196.26a5.37,5.37,0,0,0-.61-1.55c-.25-.49-.62-1.06-1-1.78a6.54,6.54,0,0,1-.54-2.65,21.05,21.05,0,0,1,.37-3.41,15.2,15.2,0,0,0,.27-4.12,11.6,11.6,0,0,0-1.42-4.51,11.25,11.25,0,0,0-1.52-2.11,17,17,0,0,0-2-1.82,8.53,8.53,0,0,1-1.93-2,10.86,10.86,0,0,1-1.07-2.72,18.3,18.3,0,0,0-2.87-5.65,18,18,0,0,0-5-4.6,16.13,16.13,0,0,0-3.21-1.55,14.88,14.88,0,0,0-3.59-.74,16.82,16.82,0,0,0-1.88,0c-.62,0-1.25.11-1.87.17a8.89,8.89,0,0,1-3.69-.34c-1.21-.35-2.38-.91-3.63-1.34a24.06,24.06,0,0,0-3.85-1.05,23.66,23.66,0,0,0-4-.4,20.52,20.52,0,0,0-4.12.38,13.61,13.61,0,0,0-7.36,4l-.58.64.23-.07a16.1,16.1,0,0,0-19.63,10.18l.12-.13a44.65,44.65,0,0,0-5.07,2.11,14.53,14.53,0,0,0-4.27,3.18,9.47,9.47,0,0,0-2.23,4.61,6.55,6.55,0,0,0,.89,4.79l0-.23a11.47,11.47,0,0,0-3.83,6.8,11.78,11.78,0,0,0,.82,7,11.18,11.18,0,0,0,.79,1.45,13.82,13.82,0,0,1,.84,1.32,2.85,2.85,0,0,1,.37,1.4,7.65,7.65,0,0,1-.17,1.43,23.08,23.08,0,0,0-.32,5.26,11.13,11.13,0,0,0,1,4.11,6.83,6.83,0,0,0,2,2.43c.67.54,1.28.78,1.61,1.07a3.62,3.62,0,0,1,.47.46,1.75,1.75,0,0,0-.43-.51c-.33-.3-.94-.56-1.59-1.1a6.75,6.75,0,0,1-1.87-2.42,10.84,10.84,0,0,1-.93-4.06,22.25,22.25,0,0,1,.36-5.2,9.84,9.84,0,0,0,.19-1.47,3.4,3.4,0,0,0-.39-1.52c-.25-.47-.56-.9-.85-1.35a11.93,11.93,0,0,1-.76-1.41,11.48,11.48,0,0,1-.76-6.82,11.14,11.14,0,0,1,3.73-6.6l.12-.1-.09-.13a6.22,6.22,0,0,1-.83-4.53,9.14,9.14,0,0,1,2.16-4.42,14.17,14.17,0,0,1,4.17-3.08,43.49,43.49,0,0,1,5-2.09l.09,0,0-.1a15.7,15.7,0,0,1,19.12-9.89l.13,0,.1-.11.55-.61a13.27,13.27,0,0,1,7.15-3.84,21.06,21.06,0,0,1,4-.37A23.67,23.67,0,0,1,595,155.9c1.23.42,2.41,1,3.66,1.35a9.62,9.62,0,0,0,1.91.37,12.38,12.38,0,0,0,1.93,0c.63-.06,1.25-.13,1.86-.17s1.22,0,1.82,0a15.21,15.21,0,0,1,3.5.71,16.52,16.52,0,0,1,3.14,1.51,18.34,18.34,0,0,1,7.73,10,11.47,11.47,0,0,0,1.12,2.79,9,9,0,0,0,2,2.07,15.85,15.85,0,0,1,2,1.78,11.21,11.21,0,0,1,1.5,2.05,11.44,11.44,0,0,1,1.42,4.41,15.23,15.23,0,0,1-.23,4.05,20.09,20.09,0,0,0-.34,3.45,6.56,6.56,0,0,0,.59,2.7c.35.73.72,1.29,1,1.77a8.13,8.13,0,0,1,.54,1.11A2.87,2.87,0,0,0,630.31,196.26Z" style="fill:#455a64"></path><path d="M582.11,156.72s.39-.18,1.09-.45a9.32,9.32,0,0,1,3.09-.6,8.69,8.69,0,0,1,4.48,1.07,9.06,9.06,0,0,1,3.79,4.11,7.83,7.83,0,0,1,.55,1.63,1.75,1.75,0,0,1-.23,1.44l-.38.44.57-.11a5.72,5.72,0,0,1,4.22.9,5.5,5.5,0,0,1,2.12,2.76,6.08,6.08,0,0,1,.33,2.33c0,.55-.1.85-.07.86a.61.61,0,0,0,.08-.21,3.69,3.69,0,0,0,.13-.64,5.79,5.79,0,0,0-2.39-5.39,6,6,0,0,0-4.5-1l.2.34a2.17,2.17,0,0,0,.33-1.79,7.58,7.58,0,0,0-.58-1.72,9.26,9.26,0,0,0-4-4.28,9,9,0,0,0-7.82-.28,5.43,5.43,0,0,0-.77.42C582.19,156.64,582.1,156.71,582.11,156.72Z" style="fill:#455a64"></path><path d="M558.27,170.56a2.41,2.41,0,0,0,.44.54,8.77,8.77,0,0,0,1.47,1.22,6.6,6.6,0,0,0,2.68,1.08,5,5,0,0,0,3.52-.73l-.3-.08.35.61c.13.2.28.39.42.58a8.37,8.37,0,0,0,3.26,2.46,8.63,8.63,0,0,0,3.26.71,7.59,7.59,0,0,0,2.22-.3,2.74,2.74,0,0,0,.75-.32,12.17,12.17,0,0,1-3,.33,8.73,8.73,0,0,1-3.11-.77,8.31,8.31,0,0,1-3.09-2.37c-.13-.18-.27-.36-.4-.55l-.33-.57-.12-.2-.19.13a4.65,4.65,0,0,1-3.23.7,6.76,6.76,0,0,1-2.59-.94C559,171.25,558.32,170.5,558.27,170.56Z" style="fill:#455a64"></path><path d="M549.82,182.71a.74.74,0,0,0,0,.26,2.45,2.45,0,0,0,.25.69,3.67,3.67,0,0,0,2.09,1.68,7.06,7.06,0,0,0,4-.07,23.18,23.18,0,0,0,2.25-.66,3.83,3.83,0,0,0,2.07-1.57l.1-.21-.33.07a15.83,15.83,0,0,0,3.87,2.82,7,7,0,0,0,3.85.75,5,5,0,0,0,2.48-.87,3.33,3.33,0,0,0,.55-.46c.11-.12.16-.19.15-.2s-.26.22-.78.53a5.48,5.48,0,0,1-2.43.71,7.06,7.06,0,0,1-3.65-.8,16.39,16.39,0,0,1-3.76-2.79l-.2-.19-.13.26-.09.18a3.48,3.48,0,0,1-1.84,1.39c-.74.27-1.5.47-2.21.67a6.94,6.94,0,0,1-3.8.16,3.67,3.67,0,0,1-2-1.48A5.66,5.66,0,0,1,549.82,182.71Z" style="fill:#455a64"></path><path d="M539.47,132.06s.24,0,.65.17a3.22,3.22,0,0,1,1.45,1.14,4.27,4.27,0,0,1,.8,2.73,12.73,12.73,0,0,1-.85,3.72l-.08.22h.23a7.88,7.88,0,0,1,4.65,1.89A6.15,6.15,0,0,1,548.5,147a5.7,5.7,0,0,1-2.42,4.42l-.5.33.59,0a7.2,7.2,0,0,1,5,2.78,6.88,6.88,0,0,1,1.38,4.4,7.52,7.52,0,0,1-.74,3c-.32.65-.57,1-.54,1s.08-.06.2-.22a4.9,4.9,0,0,0,.46-.71,7.15,7.15,0,0,0-.49-7.68,7.45,7.45,0,0,0-5.27-3l.09.37a6,6,0,0,0,2.63-4.73,6.31,6.31,0,0,0-.55-3,7,7,0,0,0-1.79-2.35,8.19,8.19,0,0,0-4.89-1.94l.16.23a12.9,12.9,0,0,0,.81-3.83,4.51,4.51,0,0,0-.93-2.86,3.13,3.13,0,0,0-1.58-1.11,1.93,1.93,0,0,0-.5-.08C539.53,132,539.47,132.05,539.47,132.06Z" style="fill:#455a64"></path><path d="M512.12,159.76a1,1,0,0,0,.22.15,6,6,0,0,0,.66.38,10,10,0,0,0,2.72.89,11.19,11.19,0,0,0,4.39-.13,10.51,10.51,0,0,0,4.93-2.63l-.31-.06a8.86,8.86,0,0,0,5.83,4.83,6.7,6.7,0,0,0,7.21-3l-.35-.05a5.54,5.54,0,0,0,1.45,2.5,7.46,7.46,0,0,0,2.14,1.49,10.39,10.39,0,0,0,4.17.82,19,19,0,0,0,2.75-.2,4.61,4.61,0,0,0,1-.17,6.54,6.54,0,0,0-1,.05,25.72,25.72,0,0,1-2.74.08,10.29,10.29,0,0,1-4-.88,6,6,0,0,1-3.36-3.78l-.12-.48-.24.43a6.31,6.31,0,0,1-6.78,2.82,8.51,8.51,0,0,1-5.57-4.59L525,158l-.19.19a10.39,10.39,0,0,1-4.74,2.59,11.13,11.13,0,0,1-4.27.21A13.22,13.22,0,0,1,512.12,159.76Z" style="fill:#455a64"></path><path d="M524.78,181.27s0,.11.14.27a1.49,1.49,0,0,0,.75.42,6.43,6.43,0,0,0,3.1-.23,7.53,7.53,0,0,0,3.78-2.62,7.66,7.66,0,0,0,1.51-5.4v0l-.32.2a9.13,9.13,0,0,0,5.47,1.26,10.11,10.11,0,0,0,4.36-1.43,11.19,11.19,0,0,0,2.4-1.94,3.78,3.78,0,0,0,.7-.89,16.22,16.22,0,0,1-3.25,2.57,10.09,10.09,0,0,1-4.24,1.31,8.89,8.89,0,0,1-5.22-1.24l-.35-.22,0,.42v0a7.31,7.31,0,0,1-5,7.7,6.64,6.64,0,0,1-3,.35A1.47,1.47,0,0,1,524.78,181.27Z" style="fill:#455a64"></path><path d="M569.62,135.29a12,12,0,0,1,.24,4.29,9.5,9.5,0,0,1-9.5,8.11h-.26l0,.25a12.06,12.06,0,0,1,.11,4.5,12.45,12.45,0,0,1-1.11,3.43,9,9,0,0,1-.67,1.19,1,1,0,0,1-.79.49.7.7,0,0,1-.54-.22c-.08-.1-.1-.19-.11-.18s0,.09.06.23a.73.73,0,0,0,.59.31,1.17,1.17,0,0,0,.95-.51,7.64,7.64,0,0,0,.74-1.19,11.84,11.84,0,0,0,1.22-3.49,12,12,0,0,0-.05-4.65l-.2.25a9.89,9.89,0,0,0,8.08-4,9.67,9.67,0,0,0,1.72-4.47,9.54,9.54,0,0,0-.15-3.22c-.1-.37-.18-.65-.25-.84S569.63,135.28,569.62,135.29Z" style="fill:#455a64"></path><path d="M587.37,225.49c-.3,1.42-2.27,2.21-4.41,1.75s-3.61-2-3.31-3.39,2.28-2.2,4.41-1.75S587.67,224.07,587.37,225.49Z" style="fill:#ff9a6c"></path><path d="M618.79,229.05c0,1.45-1.64,2.63-3.66,2.63s-3.65-1.18-3.65-2.63,1.64-2.63,3.65-2.63S618.79,227.6,618.79,229.05Z" style="fill:#ff9a6c"></path><path d="M592.25,329.68S540.71,352,540,350.92s-16.15-39.37-12.8-59.2c2.07-12.24,8.68-19.25,18.81-19.57,13.76-.44,24,12.94,26.78,17S592.25,329.68,592.25,329.68Z" style="fill:#455a64"></path><path d="M592.25,329.68s-.1-.18-.27-.52l-.74-1.54c-.64-1.38-1.58-3.38-2.79-5.94-2.43-5.16-5.92-12.64-10.37-21.81-1.12-2.29-2.29-4.69-3.57-7.16a40.64,40.64,0,0,0-2.09-3.67c-.83-1.18-1.72-2.35-2.69-3.49a47.92,47.92,0,0,0-6.54-6.51,32.46,32.46,0,0,0-8.36-5,22.37,22.37,0,0,0-10-1.55,17.14,17.14,0,0,0-9.72,3.88,19.84,19.84,0,0,0-3.59,4.1,27.31,27.31,0,0,0-2.46,5,35.12,35.12,0,0,0-1.47,5.48,24.53,24.53,0,0,0-.38,2.84,21.33,21.33,0,0,0-.2,2.88,92.58,92.58,0,0,0,2.85,22.41c1.68,7.13,3.74,13.9,5.92,20.27,1.09,3.19,2.22,6.28,3.41,9.23.3.72.6,1.51.93,2.14,0,0,.07.11,0,0s0,0,0,0l.26,0,.55-.14c.37-.11.74-.22,1.1-.35,1.47-.49,2.89-1,4.29-1.56,5.59-2.15,10.75-4.28,15.47-6.23l22.27-9.33,6-2.54,1.58-.65c.36-.15.55-.21.55-.21l-.53.25-1.55.7-6,2.64c-5.23,2.27-12.81,5.54-22.21,9.48-4.71,2-9.86,4.12-15.46,6.29-1.4.54-2.82,1.09-4.29,1.59l-1.13.35a5.47,5.47,0,0,1-.58.15l-.33.05a.51.51,0,0,1-.25,0c-.19-.11-.14-.14-.18-.19-.4-.76-.65-1.47-1-2.21-1.2-3-2.33-6.06-3.44-9.25-2.19-6.38-4.27-13.16-6-20.31a92.78,92.78,0,0,1-2.87-22.54,21.93,21.93,0,0,1,.2-2.92,25.4,25.4,0,0,1,.39-2.89,36.46,36.46,0,0,1,1.49-5.56,27.18,27.18,0,0,1,2.52-5.1,20.07,20.07,0,0,1,3.69-4.21,17.6,17.6,0,0,1,10-4A22.89,22.89,0,0,1,555,273.59a32.68,32.68,0,0,1,8.47,5.09,48.9,48.9,0,0,1,6.59,6.6c1,1.15,1.86,2.33,2.69,3.52a36.67,36.67,0,0,1,2.1,3.73c1.28,2.47,2.44,4.88,3.55,7.18,4.41,9.19,7.85,16.7,10.22,21.88l2.71,6,.69,1.56Z" style="fill:#263238"></path><path d="M631.74,319.25,624.48,325l-22-50a57.87,57.87,0,0,1,12.3,7.11c5,3.92,14.24,27.22,14.24,27.22Z" style="fill:#455a64"></path><path d="M617.06,300.14a3.6,3.6,0,0,1,.45.57l1.19,1.71c1,1.5,2.44,3.68,4,6.49a90.06,90.06,0,0,1,4.95,10.21,84.41,84.41,0,0,1,4.15,13.26,56.91,56.91,0,0,1,.21,25.08,52,52,0,0,1-2.15,7.34c-.29.86-.6,1.49-.77,1.93a3.55,3.55,0,0,1-.32.66,4.57,4.57,0,0,1,.22-.7c.14-.45.42-1.09.68-1.95a59.4,59.4,0,0,0,3.15-18.56,58.48,58.48,0,0,0-1.53-13.69,88.72,88.72,0,0,0-4.08-13.19,97.66,97.66,0,0,0-4.83-10.21c-1.55-2.82-2.93-5-3.88-6.56l-1.11-1.76A4.18,4.18,0,0,1,617.06,300.14Z" style="fill:#263238"></path><path d="M628,376.67a61.55,61.55,0,0,1,4,5.1,60.85,60.85,0,0,1,3.89,5.19,30.29,30.29,0,0,1-4.3-4.87A30,30,0,0,1,628,376.67Z" style="fill:#ff9a6c"></path></g><g id="freepik--character-2--inject-362"><polygon points="340.64 439.94 340.64 422.85 467.38 421.64 469.14 439.94 340.64 439.94" style="fill:#263238"></polygon><path d="M342.19,229.23l4.48-.94s9-9.62,13.84-7.11c0,0,3.82,2.24,0,5.66s-10.67,8.17-12.25,9.76S342,247,335.49,247.25,342.19,229.23,342.19,229.23Z" style="fill:#ffbf9d"></path><path d="M349,214.76c0,.66,1.31,10.26,1.31,11.3,0,0,.1,1.69,2.55,1.6s2.82-2.71,2.82-2.71l8.76-15.56,7.15-11.49-4.23-15.44s-.94-1-2.83,0S348,207.33,348,207.33Z" style="fill:#263238"></path><path d="M354.32,197.68a2.77,2.77,0,0,0-1.23-.35c-2.56-.14-11.83-.63-13.24-.43-1.64.23-11.4,10.31-11.4,10.31s-6.09,3.43-6.25,7-3.67,14.61-5.08,20.31-1.87,7.73-3.51,10.77l18.12,4.77s-.47-.94,3.2-2.5,8.59-15.93,7.26-18.35-6-4.53-6-4.53l-.39-2.5,6.95-10,3.2.71s.16,6.63,4.84,6.56c0,0,2.11-.94,1.64-2.19,0,0,2.34,1.64,4.22.62s-1-8.74-2.42-10.54-5.39-4.22-5.39-4.22l2.65-.54s5.47,5.31,10.23,1.4a2,2,0,0,0-.78-2.73Z" style="fill:#ffbf9d"></path><path d="M336.06,223a21.32,21.32,0,0,1-.44,3.35c-.34,2.06-.84,4.9-1.42,8-.3,1.56-.58,3-.84,4.41a22.79,22.79,0,0,1-.83,3.59,8.58,8.58,0,0,1-1.08,2.25c-.35.48-.6.7-.62.68a13,13,0,0,0,1.35-3,27.37,27.37,0,0,0,.7-3.56c.25-1.38.52-2.86.81-4.42.58-3.13,1.14-6,1.57-8A21.6,21.6,0,0,1,336.06,223Z" style="fill:#ff9a6c"></path><path d="M352.42,217.28a5.14,5.14,0,0,1-.18-1.12c-.1-.84-.23-1.86-.38-3.06-.09-.64-.19-1.35-.34-2.09a8.11,8.11,0,0,0-.3-1.1c-.1-.31-.46-.54-.78-.79a33,33,0,0,0-4.9-2.6c-.91-.39-1.8-.76-2.68-1.06a8.17,8.17,0,0,0-1.28-.35,2,2,0,0,0-1.14.24,21.76,21.76,0,0,0-3.73,2.53c-1,.81-1.81,1.5-2.37,2a6.41,6.41,0,0,1-.89.7,4.11,4.11,0,0,1,.75-.85c.52-.52,1.28-1.25,2.27-2.1a20.2,20.2,0,0,1,3.77-2.69,2.49,2.49,0,0,1,1.41-.3A10.2,10.2,0,0,1,343,205c.91.31,1.81.67,2.73,1.08a29.86,29.86,0,0,1,5,2.68,2.38,2.38,0,0,1,.92,1,7.15,7.15,0,0,1,.3,1.19c.14.76.22,1.48.29,2.13.13,1.3.18,2.35.21,3.08A4.06,4.06,0,0,1,352.42,217.28Z" style="fill:#ff9a6c"></path><path d="M332.11,207.33a14.83,14.83,0,0,1,2.15-1.88,67.38,67.38,0,0,1,5.53-4.06,6.69,6.69,0,0,1,1.78-1,3.08,3.08,0,0,1,1-.11,3.63,3.63,0,0,1,.93.21,22.31,22.31,0,0,1,2.86,1.22,12.7,12.7,0,0,1,2.47,1.41,18.36,18.36,0,0,1-2.63-1.08c-1.56-.51-4-2.33-6.11-.24-2.26,1.46-4.18,2.9-5.61,3.92A16.77,16.77,0,0,1,332.11,207.33Z" style="fill:#ff9a6c"></path><path d="M463.28,375.62c1.24-13.55,7.8-122,5.3-125.54S426,237.79,426,237.79L419.91,227l-2.32-.72-45.16,5-6.13,13-19.8,7.88s-14.32,21.4-12.63,36l3.77,75.86s.68,48.09-.26,64.39a7.08,7.08,0,0,0,3.26,6.4h128C476.34,433.27,462,389.17,463.28,375.62Z" style="fill:#FF725E"></path><path d="M342.93,320.06l5.47-68.44s-12,3.24-15.68,7.07c-4.27,4.39-19.11,28.22-19.11,28.22L298.3,342.78s.62,6.5,5.23,7c9.52,1,18.41-9.74,23.63-14.34S342.93,320.06,342.93,320.06Z" style="fill:#FF725E"></path><path d="M387.31,433.16s0-.17,0-.49,0-.81,0-1.41c0-1.27,0-3.11-.06-5.46,0-4.76-.09-11.6-.16-20.05-.13-16.94-.31-40.34-.24-66.18s.48-49.26,1.21-66.18c.22-4.23.43-8.06.61-11.42s.47-6.24.65-8.61.46-4.16.6-5.42c.07-.6.12-1.07.17-1.41s.07-.48.07-.48,0,.17,0,.49-.07.81-.12,1.41c-.12,1.27-.28,3.09-.5,5.43s-.34,5.26-.56,8.61-.34,7.19-.53,11.41c-.64,16.92-1,40.32-1.06,66.17s.05,49.24.09,66.17V425.8c0,2.35,0,4.19-.05,5.46l0,1.41C387.33,433,387.31,433.16,387.31,433.16Z" style="fill:#263238"></path><path d="M332.72,273.8a.92.92,0,0,1,0,.24c0,.19,0,.42,0,.71,0,.66.08,1.56.14,2.7.12,2.39.3,5.78.51,9.94.49,8.43,1.16,20,1.9,32.79s1.41,24.4,1.82,32.8c.18,4.16.32,7.55.43,9.94,0,1.14.06,2.05.08,2.71,0,.28,0,.51,0,.7a.64.64,0,0,1,0,.24.75.75,0,0,1,0-.24c0-.18,0-.41-.06-.7q-.07-1-.18-2.7c-.15-2.39-.35-5.77-.6-9.93-.51-8.43-1.2-20-2-32.79s-1.39-24.4-1.75-32.8c-.17-4.2-.29-7.6-.34-10,0-1.15,0-2,0-2.71V274A1.22,1.22,0,0,1,332.72,273.8Z" style="fill:#263238"></path><path d="M426,237.79a4.86,4.86,0,0,1-.51.49L424,239.64c-1.32,1.18-3.2,2.93-5.54,5.14s-5.15,4.87-8.44,7.72a70.93,70.93,0,0,1-11.63,8.44l-.15.08-.11-.09a2.62,2.62,0,0,1-.46-.5,5.62,5.62,0,0,1-.35-.5c-.23-.34-.42-.69-.64-1-.4-.7-.8-1.41-1.19-2.13q-1.17-2.17-2.34-4.42c-1.09-2.11-2.16-4.19-3.24-6.17l.47,0-2.84,7.26c-.94,2.32-1.77,4.53-2.77,6.61l-.12.26-.23-.2-13.15-11.33c-1.55-1.37-2.79-2.45-3.67-3.22l-1-.86a2,2,0,0,1-.31-.32,2.54,2.54,0,0,1,.36.26c.25.21.58.48,1,.81l3.76,3.12,13.27,11.19-.35.07c.94-2,1.79-4.27,2.71-6.58s1.85-4.75,2.82-7.26l.2-.51.27.48c1.09,2,2.15,4.07,3.25,6.18l2.32,4.41c.39.72.79,1.42,1.19,2.12a10.61,10.61,0,0,0,1.28,1.86h-.26a71.55,71.55,0,0,0,11.58-8.33c3.3-2.82,6.12-5.46,8.5-7.63s4.3-3.89,5.65-5c.67-.58,1.21-1,1.57-1.29A3,3,0,0,1,426,237.79Z" style="fill:#263238"></path><polygon points="367.44 245.32 383.8 264.49 385.65 264 388.57 249.25 384.54 259.91 367.44 245.32" style="opacity:0.30000000000000004"></polygon><path d="M373.08,394.54s5.33,6.56,18.88,7.33,21.32-3,21.32-3h53s-1.05-10.55-1.8-10.55-90,5.26-90,5.26" style="opacity:0.30000000000000004"></path><path d="M450.23,297.37s2.25,25.84,5,33.19,10.25,15.83,10.25,15.83Z" style="opacity:0.30000000000000004"></path><path d="M418.64,228.5l9.46-63.16c3-19.9-6.49-38.16-27-40.49l-1.91-.11c-19.25-1.07-36.12,12.4-38.77,31-2.46,17.26-5,36.36-5.39,45.66-.9,19.28,18.75,23.39,18.75,23.39L373,232.6l17.24,12.51Z" style="fill:#ffbf9d"></path><path d="M373.58,224.72a49.32,49.32,0,0,0,26.4-5.93s-6.92,13.52-26.6,10.68Z" style="fill:#ff9a6c"></path><path d="M365.93,173.61a2.78,2.78,0,0,0,2.56,2.93,2.71,2.71,0,0,0,3.07-2.32,2.78,2.78,0,0,0-2.56-2.93A2.7,2.7,0,0,0,365.93,173.61Z" style="fill:#263238"></path><path d="M364.08,165.36c.33.38,2.57-1,5.62-.87s5.18,1.79,5.54,1.44c.17-.15-.15-.82-1.08-1.56a7.87,7.87,0,0,0-4.41-1.59,7.66,7.66,0,0,0-4.5,1.13C364.28,164.56,363.92,165.19,364.08,165.36Z" style="fill:#263238"></path><path d="M392.27,175.43a2.78,2.78,0,0,0,2.56,2.92A2.7,2.7,0,0,0,397.9,176a2.78,2.78,0,0,0-2.56-2.93A2.7,2.7,0,0,0,392.27,175.43Z" style="fill:#263238"></path><path d="M394,167.59c.33.38,2.57-1.05,5.61-.87s5.19,1.78,5.54,1.44c.17-.15-.14-.82-1.08-1.56a7.92,7.92,0,0,0-4.41-1.6,7.71,7.71,0,0,0-4.49,1.14C394.19,166.79,393.83,167.42,394,167.59Z" style="fill:#263238"></path><path d="M381.64,188.93c0-.17-1.85-.6-4.9-1.15-.77-.12-1.5-.31-1.6-.84a3.78,3.78,0,0,1,.65-2.21l2.64-5.63c3.68-8,6.39-14.62,6.06-14.76s-3.59,6.24-7.27,14.26l-2.54,5.66a4.27,4.27,0,0,0-.58,3,1.94,1.94,0,0,0,1.21,1.18,6.08,6.08,0,0,0,1.31.25C379.7,189,381.62,189.09,381.64,188.93Z" style="fill:#263238"></path><path d="M393.89,155.94c.25.82,3.32.61,6.86,1.23s6.39,1.73,6.9,1c.24-.33-.22-1.12-1.34-2a12.39,12.39,0,0,0-10.49-1.72C394.48,155,393.78,155.55,393.89,155.94Z" style="fill:#263238"></path><path d="M365.71,156.85c.5.71,2.64.13,5.16.24s4.63.71,5.17,0c.23-.33-.06-1-1-1.71a7.63,7.63,0,0,0-8.32-.21C365.83,155.84,365.49,156.51,365.71,156.85Z" style="fill:#263238"></path><path d="M362.81,147s5.94-11.77,12.09-14.26c7.45-3,10.11,4.91,17.13,3.42s14.12-4.38,20.87,1.21c7.39,6.11,3.54,9.89,3.51,18.46-.12,34.77,5.81,44.93,8.63,28.71.31-1.78,5.5-2.91,6.7-10.43,1.57-9.74,2.66-21.61.82-28.69-1.55-6-4.75-10.21-10.65-15-9.31-7.59-22.67-8.49-31.8-8.11S362.88,131.81,362.81,147Z" style="fill:#263238"></path><path d="M423.81,183.92a5.36,5.36,0,0,1,6.11-4.72c3.67.55,7.66,2.82,7,10.23-1.21,13.15-14.54,9.25-14.53,8.88S423.25,189.41,423.81,183.92Z" style="fill:#ffbf9d"></path><path d="M425.77,193.61c.06,0,.22.19.6.4a2.5,2.5,0,0,0,1.76.19c1.48-.39,2.88-2.49,3.17-4.85a7.45,7.45,0,0,0-.36-3.34,2.66,2.66,0,0,0-1.61-1.91,1.22,1.22,0,0,0-1.45.51c-.21.35-.15.62-.23.63s-.27-.24-.11-.78a1.47,1.47,0,0,1,.61-.77,1.82,1.82,0,0,1,1.34-.22,3.29,3.29,0,0,1,2.27,2.25,7.63,7.63,0,0,1,.48,3.73c-.33,2.65-2,5-4,5.38a2.62,2.62,0,0,1-2.13-.53C425.77,193.94,425.72,193.63,425.77,193.61Z" style="fill:#ff9a6c"></path><path d="M361,144.22c4,2.35,9.72.55,12.14-3.33,3,2.71,8.61,1.52,10.16-2.14,2.1,2.44,6,2.5,9.1,1.44s5.8-3,8.9-4a15.81,15.81,0,0,1,9.53.06c-2.24,3.29.49,8.09,3.16,13.24,1.53,3,3.53,6.06,4.79,9.15s4.83,5.54,8.06,4.48c2.66-.87,4.07-3.61,5.22-6.09,2.11-4.59,4.26-9.68,2.79-14.5-1-3.23-3.22-7.75-5.94-9.84-4.29-3.29-5.7-2.6-5.7-2.6s-.26-5.32-4.3-8a10.56,10.56,0,0,0-10.28-.94s-2.86-6.47-11.78-6.44c-6.87,0-8.62,3.34-13.14,3.79-2.8.28-5.75-.93-8.37.06-4.42,1.66-4.58,8-8.34,10.84-2.07,1.54-4.93,1.76-7,3.28C356.21,135.44,357,141.88,361,144.22Z" style="fill:#263238"></path><path d="M433.36,153.94a16.27,16.27,0,0,0-1.57,3,6.46,6.46,0,0,1-2.23,2.66,6,6,0,0,1-4.2.47,10.44,10.44,0,0,1-4.06-1.66,16.85,16.85,0,0,1-2.64-2.48,20.16,20.16,0,0,0-2.27-2.57,11.53,11.53,0,0,0,1.82,2.91,13.93,13.93,0,0,0,2.65,2.72,10.45,10.45,0,0,0,4.36,1.85,5.67,5.67,0,0,0,7.09-3.67A12.6,12.6,0,0,0,433.36,153.94Z" style="fill:#455a64"></path><path d="M432.85,164.1a11.29,11.29,0,0,1-2.68,1.44,7.9,7.9,0,0,1-3.23.27,9.36,9.36,0,0,1-3.72-1.38,18.26,18.26,0,0,1-5.1-5.21,14.4,14.4,0,0,0-1.84-2.5,10.28,10.28,0,0,0,1.36,2.79,16.13,16.13,0,0,0,5.14,5.58,9.47,9.47,0,0,0,4.07,1.44,7.71,7.71,0,0,0,3.52-.47C432.28,165.3,432.93,164.12,432.85,164.1Z" style="fill:#455a64"></path><path d="M390.28,193.77a16.08,16.08,0,0,1,.77,4.43c.19,1.55-.49,2.65-1.48,3.88a5.74,5.74,0,0,1-4.38,2h-.05a6.27,6.27,0,0,1-6.25-5.23l-.53-3.27C381.54,194.72,390.05,194,390.28,193.77Z" style="fill:#ff9a6c"></path><path d="M382,203.11c0-.06.4,0,1.08.11a9.57,9.57,0,0,0,2.87,0,5.59,5.59,0,0,0,3.48-2,6.65,6.65,0,0,0,1.37-4.62A6.43,6.43,0,0,0,390,194l.42.21c-3,.44-5.7.8-7.61,1a13.06,13.06,0,0,1-3.07.21,14.25,14.25,0,0,1,3-.71c1.88-.36,4.53-.81,7.57-1.3l.28,0,.14.24a7.51,7.51,0,0,1-.77,8.15,6.06,6.06,0,0,1-4,2.06,8,8,0,0,1-3-.28A2.58,2.58,0,0,1,382,203.11Z" style="fill:#263238"></path><polygon points="352.37 341.59 357.89 383.55 379.71 383.05 383.2 341.59 352.37 341.59" style="fill:#ae7461"></polygon><rect x="350.15" y="338.32" width="35.13" height="4.57" style="fill:#e0e0e0"></rect><path d="M353.31,339.23c.08-.22,1.82-4.29,1.82-4.29l24.51-3.27,2.62,7.56Z" style="fill:#e0e0e0"></path><path d="M385.28,338.32c0,.15-7.78.26-17.37.26s-17.37-.11-17.37-.26,7.77-.26,17.37-.26S385.28,338.18,385.28,338.32Z" style="fill:#263238"></path><path d="M407.25,371s-9.09-11.29-13.86-12.45a51.45,51.45,0,0,0-11.54-.9l-1.08,7.17s-22.4.82-24.86,1.4-3.76,4.05-2.61,5.64,1.45,1.45,6.8,1.45,11.44,0,11.58,1.3.15,2.46-1.88,2.46-10.85.87-12.3.58-5.2.73-4.62,3.62,4.62,4.92,6.79,4.78a11,11,0,0,1,2.75,0s-.72,5.21,4.34,5.49a5.31,5.31,0,0,0,3.47,3c2.75.87,17.51,4.49,24.32,4.35s14.18-4.35,14.18-4.35Z" style="fill:#ffbf9d"></path><path d="M373.08,385.18a27.49,27.49,0,0,1-5.31.65,28,28,0,0,1-5.35.12,28,28,0,0,1,5.31-.64A27.55,27.55,0,0,1,373.08,385.18Z" style="fill:#ff9a6c"></path><path d="M378.69,391.54a4.65,4.65,0,0,0-1.69-.47c-1.09-.06-2.66.1-4.37.19a46.71,46.71,0,0,1-6.23.29,32.91,32.91,0,0,1,6.2-.81,27.76,27.76,0,0,1,4.44,0C378.23,390.86,378.76,391.51,378.69,391.54Z" style="fill:#ff9a6c"></path><path d="M407.25,371s30.94-3.15,38.65-5.12c11.19-2.85,29.91-11.34,29.91-11.34l12-5.88,21.58,10.75s.56,12.23-2.89,18.27A27.68,27.68,0,0,1,489.82,390c-6.46,1.58-81.09,4.54-81.09,4.54Z" style="fill:#ffbf9d"></path><path d="M467.47,249.11s13.71,4.79,17.88,18C488.8,278,510.67,343,509.57,352.3c0,0,2.77,1.68,2.74,4.49,0,4.07-2.65,3.85-2.65,3.85-3.57-.27-32.24-6.54-40.52-3.24l-18.91-56.69c0-1.67,2.19-22.17,4.66-34S467.47,249.11,467.47,249.11Z" style="fill:#FF725E"></path><path d="M445.38,277.23a9.83,9.83,0,0,1,.31-1.52,16.22,16.22,0,0,1,.49-1.74c.24-.67.44-1.45.81-2.27a27,27,0,0,1,1.2-2.65,31.64,31.64,0,0,1,1.65-2.92,34.33,34.33,0,0,1,4.83-6,33.62,33.62,0,0,1,6.1-4.64,28.14,28.14,0,0,1,3-1.52,21.47,21.47,0,0,1,2.72-1,20.55,20.55,0,0,1,2.31-.66,13.66,13.66,0,0,1,1.78-.36,9.45,9.45,0,0,1,1.53-.18c0,.12-2.17.37-5.5,1.54a26.48,26.48,0,0,0-2.66,1.1,32.11,32.11,0,0,0-2.93,1.54,34.41,34.41,0,0,0-6,4.61,36.7,36.7,0,0,0-4.79,5.84c-.61,1-1.2,1.93-1.66,2.86a28.82,28.82,0,0,0-1.25,2.6C446,275.1,445.5,277.26,445.38,277.23Z" style="fill:#263238"></path><path d="M449.06,292.88a3.58,3.58,0,0,1,.22.65l.55,1.9c.48,1.7,1.14,4.07,2,7,1.67,5.88,4.08,14,6.91,22.86s5.5,16.91,7.42,22.71c.94,2.87,1.71,5.2,2.26,6.89l.59,1.88a3.07,3.07,0,0,1,.17.66,3.75,3.75,0,0,1-.27-.63l-.68-1.85c-.59-1.67-1.41-4-2.42-6.83-2-5.77-4.73-13.78-7.56-22.67s-5.2-17-6.78-22.93c-.79-2.95-1.41-5.35-1.8-7-.19-.8-.33-1.43-.45-1.92A3.79,3.79,0,0,1,449.06,292.88Z" style="fill:#263238"></path><path d="M506.69,352.34a7.24,7.24,0,0,1-1.48-.22c-.94-.18-2.3-.42-4-.67a82.12,82.12,0,0,0-26.61.31c-1.69.29-3.05.56-4,.76a8.7,8.7,0,0,1-1.47.26,7.4,7.4,0,0,1,1.43-.46c.92-.26,2.27-.59,4-.93a73,73,0,0,1,26.74-.31c1.7.31,3.06.6,4,.84A9,9,0,0,1,506.69,352.34Z" style="fill:#263238"></path><path d="M313.61,245.31s-30.66,56-33.42,62.16-10.44,32.85,2.15,41.45,22.72-1.54,22.72-1.54,11.36-13.51,10.44-27.63,9-45.95,9-45.95l7.21-23.72Z" style="fill:#ffbf9d"></path></g></svg>
