<svg width="472" height="200" viewBox="0 0 472 200" fill="none" xmlns="http://www.w3.org/2000/svg">
<path d="M0.705811 130.195H441.49L393.486 199.999H0.705811V130.195Z" fill="#2E55A4"/>
<path d="M0.705811 62.7461H441.49L352.605 200.001H0.705811V62.7461Z" fill="#023062"/>
<path d="M10.1757 44.8314L16.8266 35.5451C20.5286 38.3059 26.4266 41.2549 31.6345 41.2549C34.7717 41.2549 36.5913 40.1883 36.5913 38.4942C36.5913 35.8589 33.7678 35.6706 29.7521 34.8549C23.7286 33.6628 11.3678 32.2196 11.3678 20.4863C11.3678 8.75298 22.0345 5.61572 30.1913 5.61572C37.9717 5.61572 44.56 8.06278 49.7051 12.6432L42.8659 21.804C39.2266 19.3569 34.7717 17.3491 29.8776 17.3491C27.9325 17.3491 25.4227 17.9138 25.4227 19.8589C25.4227 22.1177 28.3717 22.7451 31.1325 23.1844C40.858 24.6902 50.6463 25.8824 50.6463 37.7412C50.6463 47.9687 42.9913 52.9255 31.8855 52.9255C22.2855 52.9255 15.8855 49.7883 10.1757 44.8314Z" fill="white"/>
<path d="M72.1889 6.24317V52.1726H58.1967V6.24317H72.1889Z" fill="white"/>
<path d="M124.597 52.1726H119.327L96.4247 31.5295V52.1726H82.3698V6.24317H87.5776L110.542 27.1373V6.24317H124.597V52.1726Z" fill="white"/>
<path d="M154.555 26.0079H181.034C181.347 28.3922 181.222 31.0275 181.034 32.9098C179.904 44.0785 170.681 52.9255 157.441 52.9255C144.014 52.9255 132.908 42.2589 132.908 29.2706C132.908 16.2824 144.014 5.55298 157.441 5.55298C166.79 5.55298 174.571 10.4471 179.151 17.851C176.453 19.4196 170.869 22.1177 168.045 23.5608C165.535 19.6079 162.022 17.3491 157.441 17.3491C150.916 17.3491 146.963 22.7451 146.963 29.2706C146.963 35.4824 150.979 40.6902 157.002 41.1922C161.645 41.5687 166.477 39.6236 167.418 35.4196H154.555V26.0079Z" fill="white"/>
<path d="M209.581 6.24317L233.926 52.1726H218.49L215.29 45.6471H199.73L196.53 52.1726H181.094L205.439 6.24317H209.581ZM203.745 35.9216H211.275L207.51 26.7608L203.745 35.9216Z" fill="white"/>
<path d="M259.149 6.24317C269.062 6.24317 276.843 13.8353 276.843 23.3726C276.843 32.9098 270.506 39.7491 257.831 39.7491H251.682V52.1726H237.627V6.24317H259.149ZM251.682 28.8314H256.764C260.215 28.8314 262.913 26.8236 262.913 23.3726C262.913 19.6706 260.215 17.4745 256.764 17.4745H251.682V28.8314Z" fill="white"/>
<path d="M307.006 52.9255C292.261 52.9255 282.41 42.2589 282.41 29.2079C282.41 16.2196 292.261 5.49023 307.006 5.49023C321.688 5.49023 331.539 16.2196 331.539 29.2079C331.539 42.2589 321.688 52.9255 307.006 52.9255ZM307.006 17.2236C300.167 17.2236 296.465 22.6196 296.465 29.2079C296.465 35.7961 300.167 41.1294 307.006 41.1294C313.657 41.1294 317.484 35.9216 317.484 29.2079C317.484 22.8079 313.783 17.2236 307.006 17.2236Z" fill="white"/>
<path d="M352.86 38.3059V52.1726H338.868V6.24317H360.703C370.993 6.24317 378.021 13.1451 378.021 22.9334C378.021 28.9569 375.009 34.353 369.487 35.9216C371.872 38.9961 374.005 42.0706 381.597 52.1726H366.099C364.217 49.9765 358.005 41.0667 355.997 38.3059H352.86ZM352.86 17.4745V27.3883H358.884C360.954 27.3883 364.154 25.8824 364.154 22.6824C364.154 19.4824 362.146 17.4745 358.884 17.4745H352.86Z" fill="white"/>
<path d="M422.906 17.4745H400.317V23.5608H420.333V34.7922H400.317V40.9412H422.906V52.1726H386.325V6.24317H422.906V17.4745Z" fill="white"/>
<mask id="path-4-outside-1_8527_2155" maskUnits="userSpaceOnUse" x="18.3137" y="80.2441" width="363" height="101" fill="black">
<rect fill="white" x="18.3137" y="80.2441" width="363" height="101"/>
<path d="M40.9882 89.4688H26.5617V98.7432H40.4788V104.218H26.5617V122.592H20.3137V83.9941H40.9882V89.4688Z"/>
<path d="M77.378 89.4688H60.7794V98.7432H76.8953V104.218H60.7794V117.117H77.378V122.592H54.5315V83.9941H77.378V89.4688Z"/>
<path d="M115.269 89.7438L110.201 92.5436C109.254 91.0103 108.351 90.0104 107.493 89.5438C106.599 89.0105 105.446 88.7438 104.034 88.7438C102.3 88.7438 100.861 89.2021 99.7166 90.1187C98.5725 91.0187 98.0004 92.1519 98.0004 93.5185C98.0004 95.4018 99.5021 96.9183 102.505 98.0683L106.635 99.6432C109.996 100.91 112.454 102.46 114.009 104.293C115.564 106.109 116.342 108.343 116.342 110.993C116.342 114.542 115.073 117.475 112.534 119.792C109.978 122.125 106.805 123.292 103.015 123.292C99.4216 123.292 96.4541 122.3 94.1122 120.317C91.8061 118.334 90.367 115.542 89.795 111.942L96.1234 110.643C96.4094 112.909 96.9099 114.476 97.625 115.342C98.9121 117.009 100.789 117.842 103.256 117.842C105.205 117.842 106.823 117.234 108.11 116.017C109.397 114.801 110.04 113.259 110.04 111.392C110.04 110.643 109.924 109.959 109.692 109.343C109.477 108.709 109.129 108.134 108.646 107.618C108.181 107.084 107.573 106.593 106.823 106.143C106.072 105.676 105.178 105.235 104.141 104.818L100.146 103.268C94.4787 101.035 91.6452 97.7683 91.6452 93.4685C91.6452 90.5687 92.834 88.1439 95.2116 86.194C97.5893 84.2274 100.548 83.2441 104.087 83.2441C108.861 83.2441 112.588 85.4107 115.269 89.7438Z"/>
<path d="M142.381 89.4688V122.592H136.133V89.4688H126.614V83.9941H151.874V89.4688H142.381Z"/>
<path d="M169.975 83.9941V122.592H163.728V83.9941H169.975Z"/>
<path d="M188.292 83.9941L199.742 110.743L211.353 83.9941H218.191L199.608 121.129L181.454 83.9941H188.292Z"/>
<path d="M250.478 113.217H232.753L228.141 122.592H221.41L241.247 83.9939L261.66 122.592H254.822L250.478 113.217ZM247.93 107.743L241.79 94.6185L235.354 107.743H247.93Z"/>
<path d="M279.386 83.9941V117.117H291.56V122.592H273.138V83.9941H279.386Z"/>
<path d="M324.011 109.238C324.011 105.513 325.476 102.313 328.406 99.6389C331.323 96.9648 334.829 95.6277 338.924 95.6277C342.969 95.6277 346.438 96.9762 349.331 99.6732C352.236 102.37 353.689 105.61 353.689 109.393C353.689 113.198 352.23 116.426 349.312 119.078C346.383 121.74 342.846 123.072 338.703 123.072C335.038 123.072 331.746 121.889 328.829 119.523C325.617 116.906 324.011 113.478 324.011 109.238ZM328.332 109.29C328.332 112.215 329.387 114.621 331.495 116.506C333.591 118.392 336.012 119.335 338.758 119.335C341.737 119.335 344.25 118.375 346.297 116.455C348.344 114.512 349.368 112.147 349.368 109.358C349.368 106.536 348.356 104.17 346.334 102.262C344.323 100.342 341.835 99.3818 338.868 99.3818C335.914 99.3818 333.419 100.342 331.385 102.262C329.35 104.159 328.332 106.501 328.332 109.29Z"/>
<path d="M379.529 99.8789H369.637V106.238H379.18V109.993H369.637V122.592H365.353V96.1248H379.529V99.8789Z"/>
<path d="M40.9882 145.785H26.5617V155.06H40.4788V160.535H26.5617V178.908H20.3137V140.311H40.9882V145.785Z"/>
<path d="M52.5203 159.435C52.5203 154.002 54.6566 149.335 58.9291 145.435C63.1838 141.536 68.2966 139.586 74.2674 139.586C80.1668 139.586 85.2259 141.552 89.4448 145.485C93.6816 149.419 95.8 154.143 95.8 159.66C95.8 165.209 93.6727 169.917 89.418 173.784C85.1455 177.667 79.988 179.608 73.9457 179.608C68.6005 179.608 63.8006 177.884 59.5459 174.434C54.8622 170.617 52.5203 165.618 52.5203 159.435ZM58.8219 159.51C58.8219 163.776 60.3593 167.284 63.4341 170.034C66.491 172.784 70.0217 174.159 74.0261 174.159C78.3702 174.159 82.0349 172.759 85.0203 169.959C88.0058 167.126 89.4985 163.676 89.4985 159.61C89.4985 155.493 88.0236 152.043 85.074 149.26C82.1422 146.46 78.5132 145.06 74.187 145.06C69.8787 145.06 66.2408 146.46 63.2732 149.26C60.3057 152.027 58.8219 155.443 58.8219 159.51Z"/>
<path d="M107.868 159.435C107.868 154.002 110.005 149.335 114.277 145.435C118.532 141.536 123.645 139.586 129.616 139.586C135.515 139.586 140.574 141.552 144.793 145.485C149.03 149.419 151.148 154.143 151.148 159.66C151.148 165.209 149.021 169.917 144.766 173.784C140.494 177.667 135.336 179.608 129.294 179.608C123.949 179.608 119.149 177.884 114.894 174.434C110.21 170.617 107.868 165.618 107.868 159.435ZM114.17 159.51C114.17 163.776 115.707 167.284 118.782 170.034C121.839 172.784 125.37 174.159 129.374 174.159C133.718 174.159 137.383 172.759 140.368 169.959C143.354 167.126 144.847 163.676 144.847 159.61C144.847 155.493 143.372 152.043 140.422 149.26C137.49 146.46 133.861 145.06 129.535 145.06C125.227 145.06 121.589 146.46 118.621 149.26C115.654 152.027 114.17 155.443 114.17 159.51Z"/>
<path d="M175.203 145.785V178.908H168.955V145.785H159.436V140.311H184.696V145.785H175.203Z"/>
<path d="M196.549 178.908V140.311H202.77C205.541 140.311 207.749 140.511 209.394 140.911C211.056 141.311 212.46 141.986 213.604 142.936C214.766 143.919 215.686 145.144 216.366 146.61C217.063 148.094 217.412 149.594 217.412 151.11C217.412 153.877 216.276 156.218 214.006 158.135C216.205 158.835 217.939 160.06 219.208 161.81C220.495 163.543 221.139 165.559 221.139 167.859C221.139 170.876 219.995 173.425 217.707 175.509C216.33 176.792 214.784 177.684 213.068 178.184C211.19 178.667 208.84 178.908 206.015 178.908H196.549ZM202.797 156.885H204.755C207.079 156.885 208.777 156.41 209.85 155.46C210.94 154.493 211.485 153.077 211.485 151.21C211.485 149.394 210.931 148.019 209.823 147.085C208.715 146.135 207.106 145.66 204.996 145.66H202.797V156.885ZM202.797 173.434H206.659C209.483 173.434 211.557 172.917 212.88 171.884C214.274 170.767 214.971 169.351 214.971 167.634C214.971 165.968 214.301 164.568 212.96 163.434C211.655 162.318 209.322 161.76 205.962 161.76H202.797V173.434Z"/>
<path d="M259.004 169.534H241.279L236.666 178.908H229.936L250.423 140.311L270.185 178.908H263.348L259.004 169.534ZM256.456 164.059L250.315 150.935L243.88 164.059H256.456Z"/>
<path d="M287.912 140.311V173.434H300.086V178.908H281.664V140.311H287.912Z"/>
<path d="M318.536 140.311V173.434H330.71V178.908H312.288V140.311H318.536Z"/>
</mask>
<path d="M40.9882 89.4688H26.5617V98.7432H40.4788V104.218H26.5617V122.592H20.3137V83.9941H40.9882V89.4688Z" fill="#EDD899"/>
<path d="M77.378 89.4688H60.7794V98.7432H76.8953V104.218H60.7794V117.117H77.378V122.592H54.5315V83.9941H77.378V89.4688Z" fill="#EDD899"/>
<path d="M115.269 89.7438L110.201 92.5436C109.254 91.0103 108.351 90.0104 107.493 89.5438C106.599 89.0105 105.446 88.7438 104.034 88.7438C102.3 88.7438 100.861 89.2021 99.7166 90.1187C98.5725 91.0187 98.0004 92.1519 98.0004 93.5185C98.0004 95.4018 99.5021 96.9183 102.505 98.0683L106.635 99.6432C109.996 100.91 112.454 102.46 114.009 104.293C115.564 106.109 116.342 108.343 116.342 110.993C116.342 114.542 115.073 117.475 112.534 119.792C109.978 122.125 106.805 123.292 103.015 123.292C99.4216 123.292 96.4541 122.3 94.1122 120.317C91.8061 118.334 90.367 115.542 89.795 111.942L96.1234 110.643C96.4094 112.909 96.9099 114.476 97.625 115.342C98.9121 117.009 100.789 117.842 103.256 117.842C105.205 117.842 106.823 117.234 108.11 116.017C109.397 114.801 110.04 113.259 110.04 111.392C110.04 110.643 109.924 109.959 109.692 109.343C109.477 108.709 109.129 108.134 108.646 107.618C108.181 107.084 107.573 106.593 106.823 106.143C106.072 105.676 105.178 105.235 104.141 104.818L100.146 103.268C94.4787 101.035 91.6452 97.7683 91.6452 93.4685C91.6452 90.5687 92.834 88.1439 95.2116 86.194C97.5893 84.2274 100.548 83.2441 104.087 83.2441C108.861 83.2441 112.588 85.4107 115.269 89.7438Z" fill="#EDD899"/>
<path d="M142.381 89.4688V122.592H136.133V89.4688H126.614V83.9941H151.874V89.4688H142.381Z" fill="#EDD899"/>
<path d="M169.975 83.9941V122.592H163.728V83.9941H169.975Z" fill="#EDD899"/>
<path d="M188.292 83.9941L199.742 110.743L211.353 83.9941H218.191L199.608 121.129L181.454 83.9941H188.292Z" fill="#EDD899"/>
<path d="M250.478 113.217H232.753L228.141 122.592H221.41L241.247 83.9939L261.66 122.592H254.822L250.478 113.217ZM247.93 107.743L241.79 94.6185L235.354 107.743H247.93Z" fill="#EDD899"/>
<path d="M279.386 83.9941V117.117H291.56V122.592H273.138V83.9941H279.386Z" fill="#EDD899"/>
<path d="M324.011 109.238C324.011 105.513 325.476 102.313 328.406 99.6389C331.323 96.9648 334.829 95.6277 338.924 95.6277C342.969 95.6277 346.438 96.9762 349.331 99.6732C352.236 102.37 353.689 105.61 353.689 109.393C353.689 113.198 352.23 116.426 349.312 119.078C346.383 121.74 342.846 123.072 338.703 123.072C335.038 123.072 331.746 121.889 328.829 119.523C325.617 116.906 324.011 113.478 324.011 109.238ZM328.332 109.29C328.332 112.215 329.387 114.621 331.495 116.506C333.591 118.392 336.012 119.335 338.758 119.335C341.737 119.335 344.25 118.375 346.297 116.455C348.344 114.512 349.368 112.147 349.368 109.358C349.368 106.536 348.356 104.17 346.334 102.262C344.323 100.342 341.835 99.3818 338.868 99.3818C335.914 99.3818 333.419 100.342 331.385 102.262C329.35 104.159 328.332 106.501 328.332 109.29Z" fill="#EDD899"/>
<path d="M379.529 99.8789H369.637V106.238H379.18V109.993H369.637V122.592H365.353V96.1248H379.529V99.8789Z" fill="#EDD899"/>
<path d="M40.9882 145.785H26.5617V155.06H40.4788V160.535H26.5617V178.908H20.3137V140.311H40.9882V145.785Z" fill="#EDD899"/>
<path d="M52.5203 159.435C52.5203 154.002 54.6566 149.335 58.9291 145.435C63.1838 141.536 68.2966 139.586 74.2674 139.586C80.1668 139.586 85.2259 141.552 89.4448 145.485C93.6816 149.419 95.8 154.143 95.8 159.66C95.8 165.209 93.6727 169.917 89.418 173.784C85.1455 177.667 79.988 179.608 73.9457 179.608C68.6005 179.608 63.8006 177.884 59.5459 174.434C54.8622 170.617 52.5203 165.618 52.5203 159.435ZM58.8219 159.51C58.8219 163.776 60.3593 167.284 63.4341 170.034C66.491 172.784 70.0217 174.159 74.0261 174.159C78.3702 174.159 82.0349 172.759 85.0203 169.959C88.0058 167.126 89.4985 163.676 89.4985 159.61C89.4985 155.493 88.0236 152.043 85.074 149.26C82.1422 146.46 78.5132 145.06 74.187 145.06C69.8787 145.06 66.2408 146.46 63.2732 149.26C60.3057 152.027 58.8219 155.443 58.8219 159.51Z" fill="#EDD899"/>
<path d="M107.868 159.435C107.868 154.002 110.005 149.335 114.277 145.435C118.532 141.536 123.645 139.586 129.616 139.586C135.515 139.586 140.574 141.552 144.793 145.485C149.03 149.419 151.148 154.143 151.148 159.66C151.148 165.209 149.021 169.917 144.766 173.784C140.494 177.667 135.336 179.608 129.294 179.608C123.949 179.608 119.149 177.884 114.894 174.434C110.21 170.617 107.868 165.618 107.868 159.435ZM114.17 159.51C114.17 163.776 115.707 167.284 118.782 170.034C121.839 172.784 125.37 174.159 129.374 174.159C133.718 174.159 137.383 172.759 140.368 169.959C143.354 167.126 144.847 163.676 144.847 159.61C144.847 155.493 143.372 152.043 140.422 149.26C137.49 146.46 133.861 145.06 129.535 145.06C125.227 145.06 121.589 146.46 118.621 149.26C115.654 152.027 114.17 155.443 114.17 159.51Z" fill="#EDD899"/>
<path d="M175.203 145.785V178.908H168.955V145.785H159.436V140.311H184.696V145.785H175.203Z" fill="#EDD899"/>
<path d="M196.549 178.908V140.311H202.77C205.541 140.311 207.749 140.511 209.394 140.911C211.056 141.311 212.46 141.986 213.604 142.936C214.766 143.919 215.686 145.144 216.366 146.61C217.063 148.094 217.412 149.594 217.412 151.11C217.412 153.877 216.276 156.218 214.006 158.135C216.205 158.835 217.939 160.06 219.208 161.81C220.495 163.543 221.139 165.559 221.139 167.859C221.139 170.876 219.995 173.425 217.707 175.509C216.33 176.792 214.784 177.684 213.068 178.184C211.19 178.667 208.84 178.908 206.015 178.908H196.549ZM202.797 156.885H204.755C207.079 156.885 208.777 156.41 209.85 155.46C210.94 154.493 211.485 153.077 211.485 151.21C211.485 149.394 210.931 148.019 209.823 147.085C208.715 146.135 207.106 145.66 204.996 145.66H202.797V156.885ZM202.797 173.434H206.659C209.483 173.434 211.557 172.917 212.88 171.884C214.274 170.767 214.971 169.351 214.971 167.634C214.971 165.968 214.301 164.568 212.96 163.434C211.655 162.318 209.322 161.76 205.962 161.76H202.797V173.434Z" fill="#EDD899"/>
<path d="M259.004 169.534H241.279L236.666 178.908H229.936L250.423 140.311L270.185 178.908H263.348L259.004 169.534ZM256.456 164.059L250.315 150.935L243.88 164.059H256.456Z" fill="#EDD899"/>
<path d="M287.912 140.311V173.434H300.086V178.908H281.664V140.311H287.912Z" fill="#EDD899"/>
<path d="M318.536 140.311V173.434H330.71V178.908H312.288V140.311H318.536Z" fill="#EDD899"/>
<path d="M40.9882 89.4688H26.5617V98.7432H40.4788V104.218H26.5617V122.592H20.3137V83.9941H40.9882V89.4688Z" stroke="#EDD899" stroke-width="3.13725" mask="url(#path-4-outside-1_8527_2155)"/>
<path d="M77.378 89.4688H60.7794V98.7432H76.8953V104.218H60.7794V117.117H77.378V122.592H54.5315V83.9941H77.378V89.4688Z" stroke="#EDD899" stroke-width="3.13725" mask="url(#path-4-outside-1_8527_2155)"/>
<path d="M115.269 89.7438L110.201 92.5436C109.254 91.0103 108.351 90.0104 107.493 89.5438C106.599 89.0105 105.446 88.7438 104.034 88.7438C102.3 88.7438 100.861 89.2021 99.7166 90.1187C98.5725 91.0187 98.0004 92.1519 98.0004 93.5185C98.0004 95.4018 99.5021 96.9183 102.505 98.0683L106.635 99.6432C109.996 100.91 112.454 102.46 114.009 104.293C115.564 106.109 116.342 108.343 116.342 110.993C116.342 114.542 115.073 117.475 112.534 119.792C109.978 122.125 106.805 123.292 103.015 123.292C99.4216 123.292 96.4541 122.3 94.1122 120.317C91.8061 118.334 90.367 115.542 89.795 111.942L96.1234 110.643C96.4094 112.909 96.9099 114.476 97.625 115.342C98.9121 117.009 100.789 117.842 103.256 117.842C105.205 117.842 106.823 117.234 108.11 116.017C109.397 114.801 110.04 113.259 110.04 111.392C110.04 110.643 109.924 109.959 109.692 109.343C109.477 108.709 109.129 108.134 108.646 107.618C108.181 107.084 107.573 106.593 106.823 106.143C106.072 105.676 105.178 105.235 104.141 104.818L100.146 103.268C94.4787 101.035 91.6452 97.7683 91.6452 93.4685C91.6452 90.5687 92.834 88.1439 95.2116 86.194C97.5893 84.2274 100.548 83.2441 104.087 83.2441C108.861 83.2441 112.588 85.4107 115.269 89.7438Z" stroke="#EDD899" stroke-width="3.13725" mask="url(#path-4-outside-1_8527_2155)"/>
<path d="M142.381 89.4688V122.592H136.133V89.4688H126.614V83.9941H151.874V89.4688H142.381Z" stroke="#EDD899" stroke-width="3.13725" mask="url(#path-4-outside-1_8527_2155)"/>
<path d="M169.975 83.9941V122.592H163.728V83.9941H169.975Z" stroke="#EDD899" stroke-width="3.13725" mask="url(#path-4-outside-1_8527_2155)"/>
<path d="M188.292 83.9941L199.742 110.743L211.353 83.9941H218.191L199.608 121.129L181.454 83.9941H188.292Z" stroke="#EDD899" stroke-width="3.13725" mask="url(#path-4-outside-1_8527_2155)"/>
<path d="M250.478 113.217H232.753L228.141 122.592H221.41L241.247 83.9939L261.66 122.592H254.822L250.478 113.217ZM247.93 107.743L241.79 94.6185L235.354 107.743H247.93Z" stroke="#EDD899" stroke-width="3.13725" mask="url(#path-4-outside-1_8527_2155)"/>
<path d="M279.386 83.9941V117.117H291.56V122.592H273.138V83.9941H279.386Z" stroke="#EDD899" stroke-width="3.13725" mask="url(#path-4-outside-1_8527_2155)"/>
<path d="M324.011 109.238C324.011 105.513 325.476 102.313 328.406 99.6389C331.323 96.9648 334.829 95.6277 338.924 95.6277C342.969 95.6277 346.438 96.9762 349.331 99.6732C352.236 102.37 353.689 105.61 353.689 109.393C353.689 113.198 352.23 116.426 349.312 119.078C346.383 121.74 342.846 123.072 338.703 123.072C335.038 123.072 331.746 121.889 328.829 119.523C325.617 116.906 324.011 113.478 324.011 109.238ZM328.332 109.29C328.332 112.215 329.387 114.621 331.495 116.506C333.591 118.392 336.012 119.335 338.758 119.335C341.737 119.335 344.25 118.375 346.297 116.455C348.344 114.512 349.368 112.147 349.368 109.358C349.368 106.536 348.356 104.17 346.334 102.262C344.323 100.342 341.835 99.3818 338.868 99.3818C335.914 99.3818 333.419 100.342 331.385 102.262C329.35 104.159 328.332 106.501 328.332 109.29Z" stroke="#EDD899" stroke-width="3.13725" mask="url(#path-4-outside-1_8527_2155)"/>
<path d="M379.529 99.8789H369.637V106.238H379.18V109.993H369.637V122.592H365.353V96.1248H379.529V99.8789Z" stroke="#EDD899" stroke-width="3.13725" mask="url(#path-4-outside-1_8527_2155)"/>
<path d="M40.9882 145.785H26.5617V155.06H40.4788V160.535H26.5617V178.908H20.3137V140.311H40.9882V145.785Z" stroke="#EDD899" stroke-width="3.13725" mask="url(#path-4-outside-1_8527_2155)"/>
<path d="M52.5203 159.435C52.5203 154.002 54.6566 149.335 58.9291 145.435C63.1838 141.536 68.2966 139.586 74.2674 139.586C80.1668 139.586 85.2259 141.552 89.4448 145.485C93.6816 149.419 95.8 154.143 95.8 159.66C95.8 165.209 93.6727 169.917 89.418 173.784C85.1455 177.667 79.988 179.608 73.9457 179.608C68.6005 179.608 63.8006 177.884 59.5459 174.434C54.8622 170.617 52.5203 165.618 52.5203 159.435ZM58.8219 159.51C58.8219 163.776 60.3593 167.284 63.4341 170.034C66.491 172.784 70.0217 174.159 74.0261 174.159C78.3702 174.159 82.0349 172.759 85.0203 169.959C88.0058 167.126 89.4985 163.676 89.4985 159.61C89.4985 155.493 88.0236 152.043 85.074 149.26C82.1422 146.46 78.5132 145.06 74.187 145.06C69.8787 145.06 66.2408 146.46 63.2732 149.26C60.3057 152.027 58.8219 155.443 58.8219 159.51Z" stroke="#EDD899" stroke-width="3.13725" mask="url(#path-4-outside-1_8527_2155)"/>
<path d="M107.868 159.435C107.868 154.002 110.005 149.335 114.277 145.435C118.532 141.536 123.645 139.586 129.616 139.586C135.515 139.586 140.574 141.552 144.793 145.485C149.03 149.419 151.148 154.143 151.148 159.66C151.148 165.209 149.021 169.917 144.766 173.784C140.494 177.667 135.336 179.608 129.294 179.608C123.949 179.608 119.149 177.884 114.894 174.434C110.21 170.617 107.868 165.618 107.868 159.435ZM114.17 159.51C114.17 163.776 115.707 167.284 118.782 170.034C121.839 172.784 125.37 174.159 129.374 174.159C133.718 174.159 137.383 172.759 140.368 169.959C143.354 167.126 144.847 163.676 144.847 159.61C144.847 155.493 143.372 152.043 140.422 149.26C137.49 146.46 133.861 145.06 129.535 145.06C125.227 145.06 121.589 146.46 118.621 149.26C115.654 152.027 114.17 155.443 114.17 159.51Z" stroke="#EDD899" stroke-width="3.13725" mask="url(#path-4-outside-1_8527_2155)"/>
<path d="M175.203 145.785V178.908H168.955V145.785H159.436V140.311H184.696V145.785H175.203Z" stroke="#EDD899" stroke-width="3.13725" mask="url(#path-4-outside-1_8527_2155)"/>
<path d="M196.549 178.908V140.311H202.77C205.541 140.311 207.749 140.511 209.394 140.911C211.056 141.311 212.46 141.986 213.604 142.936C214.766 143.919 215.686 145.144 216.366 146.61C217.063 148.094 217.412 149.594 217.412 151.11C217.412 153.877 216.276 156.218 214.006 158.135C216.205 158.835 217.939 160.06 219.208 161.81C220.495 163.543 221.139 165.559 221.139 167.859C221.139 170.876 219.995 173.425 217.707 175.509C216.33 176.792 214.784 177.684 213.068 178.184C211.19 178.667 208.84 178.908 206.015 178.908H196.549ZM202.797 156.885H204.755C207.079 156.885 208.777 156.41 209.85 155.46C210.94 154.493 211.485 153.077 211.485 151.21C211.485 149.394 210.931 148.019 209.823 147.085C208.715 146.135 207.106 145.66 204.996 145.66H202.797V156.885ZM202.797 173.434H206.659C209.483 173.434 211.557 172.917 212.88 171.884C214.274 170.767 214.971 169.351 214.971 167.634C214.971 165.968 214.301 164.568 212.96 163.434C211.655 162.318 209.322 161.76 205.962 161.76H202.797V173.434Z" stroke="#EDD899" stroke-width="3.13725" mask="url(#path-4-outside-1_8527_2155)"/>
<path d="M259.004 169.534H241.279L236.666 178.908H229.936L250.423 140.311L270.185 178.908H263.348L259.004 169.534ZM256.456 164.059L250.315 150.935L243.88 164.059H256.456Z" stroke="#EDD899" stroke-width="3.13725" mask="url(#path-4-outside-1_8527_2155)"/>
<path d="M287.912 140.311V173.434H300.086V178.908H281.664V140.311H287.912Z" stroke="#EDD899" stroke-width="3.13725" mask="url(#path-4-outside-1_8527_2155)"/>
<path d="M318.536 140.311V173.434H330.71V178.908H312.288V140.311H318.536Z" stroke="#EDD899" stroke-width="3.13725" mask="url(#path-4-outside-1_8527_2155)"/>
</svg>
