<svg width="106" height="32" viewBox="0 0 106 32" fill="none" xmlns="http://www.w3.org/2000/svg">
<g clip-path="url(#clip0_8527_2150)">
<path d="M22.034 9.57224V21.0594H28.94V18.5295H24.6323V16.4098H28.8716V14.1534H24.6323V11.9654H28.94V9.57224H22.034ZM40.0169 20.5124C39.1964 20.7859 37.6921 21.1962 36.1879 21.1962C34.1366 21.1962 32.6323 20.6492 31.5383 19.6919C30.5126 18.7346 29.8973 17.2304 29.8973 15.5893C29.8973 11.7603 32.7007 9.64062 36.393 9.64062C37.8973 9.64062 38.9913 9.91412 39.5383 10.1876L38.9913 12.2389C38.3759 11.9654 37.5554 11.7603 36.3246 11.7603C34.1366 11.7603 32.5639 12.991 32.5639 15.4526C32.5639 17.7774 34.0682 19.2133 36.1195 19.2133C36.7349 19.2133 37.2135 19.1449 37.4186 19.0081V16.615H35.6408V14.5637H39.8802V20.5124H40.0169ZM16.0853 12.2389H13.8289V21.2645H11.1622V12.2389H8.9058V9.77737H16.0853V12.2389ZM22.5126 6.08506L15.1964 7.04233C15.1964 7.04233 12.393 0.341471 12.1195 0.0679667C11.846 -0.205538 11.7092 0.136343 11.7092 0.136343L9.45281 6.97395C9.45281 6.97395 1.52119 7.38421 1.04256 7.38421C0.563923 7.38421 0.769051 7.72609 0.837427 7.79446C0.905803 7.86284 5.82888 13.7432 6.10238 13.8799C6.30751 14.1534 6.30751 14.3586 6.30751 14.3586C6.30751 14.3586 7.26478 30.6321 7.26478 31.4526C7.33315 32.4782 7.94854 31.5893 7.94854 31.5893L12.2562 25.5039L13.3502 23.8628C13.487 23.7261 13.5554 23.7261 13.5554 23.7261L21.6921 24.615C21.6921 24.615 22.1708 24.7517 21.9656 24.2731C20.8032 21.6748 17.5212 14.4953 17.5212 14.4953L22.7178 6.63207C23.128 6.01669 22.9913 6.01669 22.5126 6.08506ZM43.2306 25.0252V5.46968H48.2904V7.52096H45.9656V22.9739H48.2904V25.0252H43.2306ZM106 5.46968V25.0252H100.94V22.9739H103.265V7.58933H100.94V5.46968H106ZM50.4101 18.3928C51.299 18.803 52.2562 19.0765 53.2819 19.1449C54.4443 19.1449 55.128 18.6663 55.128 17.9141C55.128 17.162 54.581 16.8201 53.2135 16.2731C51.299 15.5893 50.0682 14.5637 50.0682 12.8543C50.0682 10.8714 51.7092 9.36711 54.3759 9.36711C55.675 9.36711 56.6323 9.64062 57.3161 9.91412L56.7691 12.1022C56.0169 11.7603 55.1964 11.5551 54.3759 11.5551C53.2819 11.5551 52.7349 12.1022 52.7349 12.6492C52.7349 13.4013 53.4186 13.7432 54.8545 14.2902C56.9058 15.0423 57.8631 16.1363 57.8631 17.709C57.8631 19.6235 56.3588 21.2645 53.2135 21.2645C51.9144 21.2645 50.6152 20.9227 49.9314 20.5808L50.4101 18.3928ZM59.3673 9.70899C60.1879 9.57224 61.2819 9.50386 62.8545 9.50386C64.4955 9.50386 65.5896 9.84575 66.3417 10.3928C67.0938 10.9398 67.5725 11.897 67.5725 13.0594C67.5725 14.1534 67.2306 15.1107 66.4784 15.7945C65.5896 16.615 64.2904 17.0252 62.7178 17.0252C62.4443 17.0252 62.1024 17.0252 61.8289 16.9569V21.0594H59.2306L59.3673 9.70899ZM61.9656 14.9739C62.2391 15.0423 62.5126 15.0423 62.8545 15.0423C64.222 15.0423 65.1109 14.3586 65.1109 13.1962C65.1109 12.1022 64.3588 11.4868 63.0596 11.4868C62.7178 11.4868 62.3075 11.4868 61.9656 11.6235V14.9739ZM79.675 15.1791C79.675 18.9398 77.4186 21.2645 74.0682 21.2645C70.6494 21.2645 68.6665 18.6663 68.6665 15.3842C68.6665 11.9654 70.8545 9.36711 74.2733 9.36711C77.6921 9.36711 79.675 12.0338 79.675 15.1791ZM71.3332 15.3842C71.3332 17.6406 72.4272 19.2133 74.1366 19.2133C75.9144 19.2133 76.8716 17.5722 76.8716 15.3158C76.8716 13.2645 75.9144 11.4868 74.0682 11.4868C72.3588 11.4868 71.3332 13.1278 71.3332 15.3842ZM81.1793 9.70899C82.3417 9.57224 83.5041 9.43549 84.6665 9.50386C86.3759 9.50386 87.6067 9.77737 88.3588 10.3928C89.0426 10.9398 89.4528 11.7603 89.4528 12.7859C89.4528 14.2218 88.4272 15.2475 87.4015 15.5893V15.7261C88.222 16.068 88.6323 16.8201 88.9058 17.9141C89.2477 19.2133 89.6579 20.7175 89.8631 21.1962H87.1964C86.9913 20.8543 86.7178 19.897 86.3759 18.5295C86.034 17.0936 85.5554 16.6834 84.5297 16.6834H83.7776V21.1962H81.1793V9.70899ZM83.7776 14.7004H84.8032C86.1024 14.7004 86.8545 14.0167 86.8545 13.0594C86.8545 11.9654 86.1024 11.4868 84.94 11.4184C84.5297 11.4184 84.1879 11.4184 83.7776 11.4868V14.7004ZM93.3503 11.7603H90.2733V9.57224H99.0938V11.7603H95.9485V21.0594H93.3503V11.7603Z" fill="white"/>
</g>
<defs>
<clipPath id="clip0_8527_2150">
<rect width="105.299" height="32" fill="white" transform="translate(0.700928)"/>
</clipPath>
</defs>
</svg>
