<svg width="240" height="176" viewBox="0 0 240 176" fill="none" xmlns="http://www.w3.org/2000/svg">
<path d="M93.5792 86.9297C87.114 107.239 74.8479 115.491 74.1476 115.947C73.7311 116.218 73.2237 116.313 72.737 116.211C72.2503 116.109 71.8242 115.817 71.5525 115.401C71.2808 114.984 71.1857 114.477 71.2881 113.99C71.3905 113.503 71.6821 113.077 72.0986 112.805C72.2501 112.706 82.7381 105.582 89.0589 88.3227C81.3251 90.8155 73.7659 93.8204 66.4313 97.3174C65.9829 97.527 65.4698 97.5508 65.004 97.3837C64.5381 97.2165 64.1573 96.8719 63.9444 96.4251C63.7316 95.9783 63.7041 95.4654 63.8679 94.9984C64.0317 94.5313 64.3735 94.1479 64.8187 93.9319C73.1203 89.975 81.7043 86.6402 90.4999 83.955C92.5526 76.7714 93.6347 69.3454 93.7172 61.8747H65.625C65.1277 61.8747 64.6508 61.6771 64.2992 61.3255C63.9475 60.9739 63.75 60.4969 63.75 59.9997C63.75 59.5024 63.9475 59.0255 64.2992 58.6738C64.6508 58.3222 65.1277 58.1247 65.625 58.1247H93.7172C93.6332 50.8356 92.6008 43.5885 90.6459 36.5659C81.6946 33.9003 73.0227 30.373 64.7522 26.0337C64.5343 25.919 64.3411 25.7625 64.1837 25.5731C64.0262 25.3838 63.9076 25.1653 63.8346 24.9301C63.7617 24.6949 63.7357 24.4476 63.7583 24.2024C63.7808 23.9572 63.8515 23.7188 63.9662 23.5009C64.0809 23.283 64.2374 23.0898 64.4267 22.9324C64.6161 22.7749 64.8346 22.6563 65.0698 22.5834C65.305 22.5104 65.5522 22.4844 65.7974 22.507C66.0427 22.5296 66.281 22.6002 66.4989 22.7149C73.7896 26.5399 81.4026 29.7159 89.25 32.2063C82.9515 14.5635 72.2516 7.29453 72.0986 7.19385C71.6821 6.92213 71.3905 6.49607 71.2881 6.0094C71.1857 5.52272 71.2808 5.0153 71.5525 4.59875C71.8242 4.1822 72.2503 3.89066 72.737 3.78824C73.2237 3.68583 73.7311 3.78094 74.1476 4.05266C74.8536 4.51241 87.3193 12.894 93.7397 33.5732C99.1582 35.113 104.66 36.3444 110.218 37.2615C110.682 37.3375 111.102 37.5857 111.392 37.9568C111.682 38.3278 111.822 38.7945 111.784 39.264C111.746 39.7335 111.532 40.1714 111.186 40.4907C110.839 40.8099 110.386 40.9871 109.915 40.987C109.812 40.9868 109.709 40.9785 109.608 40.9622C104.617 40.1391 99.7209 39.0542 94.9108 37.767C96.531 44.4342 97.3887 51.2639 97.4676 58.1247H103.125C103.622 58.1247 104.099 58.3222 104.451 58.6738C104.802 59.0255 105 59.5024 105 59.9997C105 60.4969 104.802 60.9739 104.451 61.3255C104.099 61.6771 103.622 61.8747 103.125 61.8747H97.4676C97.39 68.8979 96.4942 75.8882 94.7981 82.704C99.7785 81.3253 104.767 80.1623 109.75 79.266C109.992 79.2225 110.241 79.2271 110.481 79.2797C110.722 79.3322 110.95 79.4317 111.152 79.5723C111.354 79.7129 111.527 79.8919 111.659 80.0992C111.792 80.3065 111.883 80.5379 111.927 80.7803C111.97 81.0227 111.966 81.2712 111.913 81.5118C111.861 81.7524 111.761 81.9803 111.621 82.1824C111.48 82.3846 111.301 82.5571 111.094 82.69C110.886 82.823 110.655 82.9138 110.413 82.9573C104.735 83.9839 99.1164 85.3099 93.5792 86.9297ZM143.875 20.047C128.606 17.0228 113.909 11.6103 100.325 4.00878C99.8974 3.76928 99.3927 3.70693 98.9194 3.83511C98.446 3.96328 98.0418 4.27177 97.7932 4.69446C97.5446 5.11714 97.4715 5.62039 97.5896 6.09632C97.7077 6.57226 98.0075 6.98301 98.4248 7.24053C104.339 10.6686 110.526 13.6036 116.923 16.0155C119.418 19.7041 121.367 23.7346 122.707 27.9816C122.868 28.4522 123.209 28.8395 123.656 29.0585C124.103 29.2774 124.618 29.3099 125.088 29.149C125.559 28.988 125.946 28.6467 126.165 28.2001C126.384 27.7535 126.417 27.2383 126.256 26.7677C125.246 23.7677 124.004 20.8513 122.539 18.0452C129.273 20.3225 136.13 22.2142 143.079 23.7109C151.4 25.4695 158.864 30.0346 164.22 36.6412C169.577 43.2478 172.5 51.4945 172.5 59.9997C172.5 68.5048 169.577 76.7515 164.22 83.3581C158.864 89.9647 151.4 94.5298 143.079 96.2884C136.13 97.7851 129.273 99.6767 122.539 101.954C124.004 99.1478 125.246 96.2314 126.256 93.2314C126.417 92.7608 126.384 92.2456 126.165 91.799C125.946 91.3524 125.559 91.0111 125.088 90.8502C124.618 90.6892 124.103 90.7217 123.656 90.9407C123.209 91.1596 122.868 91.547 122.707 92.0175C121.366 96.264 119.418 100.294 116.923 103.983C110.527 106.395 104.339 109.33 98.4248 112.758C98.207 112.88 98.0157 113.044 97.8622 113.241C97.7087 113.438 97.596 113.664 97.5307 113.904C97.4655 114.145 97.449 114.397 97.4822 114.644C97.5155 114.892 97.5978 115.13 97.7243 115.345C97.8508 115.56 98.019 115.748 98.2191 115.897C98.4191 116.046 98.6469 116.154 98.8891 116.214C99.1314 116.274 99.3832 116.286 99.6298 116.247C99.8764 116.209 100.113 116.121 100.325 115.99C113.909 108.389 128.606 102.976 143.875 99.952C153.033 98.0117 161.247 92.984 167.14 85.7109C173.034 78.4377 176.25 69.3606 176.25 59.9993C176.25 50.638 173.034 41.5609 167.14 34.2877C161.247 27.0145 153.033 21.9873 143.875 20.047Z" fill="url(#paint0_linear_40000033_1524)"/>
<path d="M138.968 30.0001C106.731 30.5522 97.48 73.267 126.249 87.1977C137.366 92.759 152.538 89.7512 160.662 80.755C178.838 62.0641 165.352 29.9319 138.968 30.0001ZM142.768 41.2338H151.849C152.077 41.2294 152.298 41.1533 152.48 41.0162C152.662 40.8791 152.795 40.6882 152.862 40.4706C152.929 40.253 152.925 40.0199 152.851 39.8047C152.777 39.5894 152.637 39.4031 152.45 39.2721L145.173 34.4164L145.688 32.9693C149.5 33.9069 153.067 35.6453 156.153 38.0685C159.238 40.4918 161.771 43.5442 163.582 47.0222L156.712 41.6197C156.529 41.483 156.308 41.4075 156.08 41.4038C155.852 41.4002 155.628 41.4686 155.441 41.5994C155.255 41.7302 155.114 41.9166 155.039 42.132C154.965 42.3474 154.96 42.5808 155.027 42.7989L157.839 51.4278L151.484 56.2835H142.768L140.106 48.7587L142.768 41.2338ZM132.249 32.9693L132.764 34.4164L125.486 39.2721C125.3 39.403 125.16 39.5894 125.086 39.8047C125.012 40.0199 125.008 40.253 125.075 40.4705C125.141 40.6881 125.275 40.8791 125.457 41.0161C125.639 41.1532 125.86 41.2293 126.087 41.2337L135.169 41.2337L137.831 48.7587L135.168 56.2835H126.452L120.098 51.4278L122.899 42.7989C122.966 42.5808 122.961 42.3474 122.887 42.132C122.812 41.9166 122.672 41.7301 122.485 41.5994C122.298 41.4686 122.074 41.4001 121.846 41.4038C121.618 41.4074 121.397 41.483 121.214 41.6196L114.344 47.0222C116.158 43.5447 118.693 40.4928 121.781 38.0698C124.868 35.6467 128.436 33.908 132.249 32.9693ZM123.511 75.1171L116.169 69.7897C115.981 69.6591 115.757 69.5912 115.528 69.5957C115.299 69.6003 115.078 69.6772 114.895 69.8153C114.713 69.9534 114.579 70.1456 114.513 70.3644C114.447 70.5832 114.451 70.8173 114.527 71.0331L116.62 76.6929C113.176 72.1077 111.241 66.5686 111.081 60.8391L112.884 67.2171C112.95 67.4355 113.082 67.6275 113.264 67.7655C113.445 67.9036 113.666 67.9806 113.894 67.9853C114.122 67.9901 114.346 67.9224 114.533 67.7921C114.72 67.6617 114.86 67.4754 114.935 67.26L117.747 58.6311L125.776 58.4381L132.753 63.101L130.113 70.5722L123.511 75.1171ZM141.577 86.8654L147.18 86.6511C141.793 88.3056 136.03 88.2944 130.649 86.6189L136.339 86.844C136.567 86.8491 136.791 86.7817 136.979 86.6515C137.167 86.5214 137.308 86.3351 137.384 86.1196C137.459 85.904 137.463 85.6702 137.397 85.4517C137.331 85.2333 137.197 85.0414 137.015 84.9037L129.662 79.5764L131.927 71.9444L138.968 67.2494L145.956 71.9122L148.254 79.6086L140.901 84.9253C140.719 85.0633 140.586 85.2551 140.52 85.4734C140.454 85.6916 140.459 85.9251 140.534 86.1403C140.609 86.3556 140.75 86.5417 140.937 86.6719C141.125 86.8021 141.349 86.8699 141.577 86.8654ZM163.024 69.8218C162.84 69.6845 162.616 69.6094 162.387 69.6075C162.157 69.6055 161.933 69.6769 161.746 69.8111L154.393 75.1385L147.846 70.6365L145.183 63.1009L152.161 58.438L160.19 58.6417L162.991 67.2707C163.066 67.4861 163.206 67.6724 163.393 67.8028C163.58 67.9331 163.804 68.0008 164.032 67.996C164.26 67.9912 164.481 67.9143 164.662 67.7762C164.844 67.6381 164.977 67.4461 165.042 67.2278L166.856 60.8071C166.704 66.5629 164.756 72.1277 161.285 76.725L163.389 71.0546C163.467 70.837 163.473 70.6003 163.408 70.3787C163.342 70.1571 163.207 69.9621 163.024 69.8218Z" fill="white"/>
<g filter="url(#filter0_d_40000033_1524)">
<path d="M19.9609 169H15.8105L12.3535 153.922H16.6309L17.373 158.229C17.653 159.876 17.8776 161.718 18.0469 163.756C18.1185 162.851 18.2064 162.005 18.3105 161.217C18.4147 160.429 18.5384 159.661 18.6816 158.912L19.6484 153.922H24.0723L19.9609 169ZM39.8008 161.51C39.8008 163.808 39.2767 165.676 38.2285 167.115C37.1868 168.548 35.8294 169.264 34.1562 169.264C32.6719 169.264 31.3991 168.714 30.3379 167.613C29.0033 166.22 28.3359 164.13 28.3359 161.344C28.3359 158.674 29.0326 156.633 30.4258 155.221C31.4609 154.173 32.6882 153.648 34.1074 153.648C35.8457 153.648 37.2292 154.358 38.2578 155.777C39.2865 157.197 39.8008 159.107 39.8008 161.51ZM35.5723 161.539C35.5723 158.811 35.0905 157.447 34.127 157.447C33.6452 157.447 33.2611 157.805 32.9746 158.521C32.6947 159.186 32.5547 160.162 32.5547 161.451C32.5547 162.721 32.6849 163.707 32.9453 164.41C33.2122 165.107 33.5801 165.455 34.0488 165.455C34.5306 165.455 34.9017 165.11 35.1621 164.42C35.4355 163.73 35.5723 162.77 35.5723 161.539ZM50.9297 169H46.8574V157.535H44.6113V153.922H53.2637V157.535H50.9297V169ZM58.3184 169V153.922H65.8867V157.467H62.3906V159.664H65.5254V163.072H62.3906V165.377H65.8867V169H58.3184ZM81.3281 168.629V163.893C82.1289 164.986 82.9948 165.533 83.9258 165.533C84.2773 165.533 84.5638 165.442 84.7852 165.26C85.0065 165.071 85.1172 164.837 85.1172 164.557C85.1172 164.153 84.8763 163.759 84.3945 163.375L83.7305 162.857C83.2878 162.525 82.9102 162.197 82.5977 161.871C82.2852 161.539 82.0312 161.201 81.8359 160.855C81.6406 160.504 81.4974 160.143 81.4062 159.771C81.3151 159.4 81.2695 159.01 81.2695 158.6C81.2695 157.896 81.4323 157.161 81.7578 156.393C81.9206 156.035 82.1094 155.709 82.3242 155.416C82.5391 155.117 82.7865 154.853 83.0664 154.625C83.8346 153.974 84.7624 153.648 85.8496 153.648C86.8197 153.648 87.7962 153.906 88.7793 154.42V159.029C88.4473 158.515 88.0697 158.111 87.6465 157.818C87.2233 157.519 86.8066 157.369 86.3965 157.369C86.084 157.369 85.8268 157.46 85.625 157.643C85.4167 157.818 85.3125 158.03 85.3125 158.277C85.3125 158.681 85.5892 159.081 86.1426 159.479L86.7871 159.957C87.6465 160.576 88.2617 161.21 88.6328 161.861C89.0104 162.512 89.1992 163.274 89.1992 164.146C89.1992 165.631 88.7467 166.855 87.8418 167.818C86.9368 168.782 85.791 169.264 84.4043 169.264C83.4473 169.264 82.4219 169.052 81.3281 168.629ZM100.943 153.922H105.016V164.586C105.016 165.478 104.876 166.201 104.596 166.754C104.322 167.333 103.867 167.857 103.229 168.326C102.369 168.951 101.324 169.264 100.094 169.264C98.7005 169.264 97.5319 168.919 96.5879 168.229C95.39 167.35 94.791 165.943 94.791 164.01V153.922H98.8633V163.648C98.8633 164.306 98.9414 164.771 99.0977 165.045C99.2604 165.318 99.5306 165.455 99.9082 165.455C100.299 165.455 100.569 165.328 100.719 165.074C100.868 164.807 100.943 164.335 100.943 163.658V153.922ZM119.611 164.361L119.377 168.717C118.472 169.081 117.661 169.264 116.945 169.264C115.259 169.264 113.84 168.645 112.688 167.408C111.398 166.021 110.754 164.059 110.754 161.52C110.754 159.143 111.359 157.236 112.57 155.797C113.781 154.365 115.399 153.648 117.424 153.648C118.081 153.648 118.752 153.772 119.436 154.02V158.326C118.83 157.721 118.208 157.418 117.57 157.418C116.737 157.418 116.086 157.773 115.617 158.482C115.148 159.199 114.914 160.188 114.914 161.451C114.914 162.063 114.973 162.61 115.09 163.092C115.207 163.574 115.373 163.98 115.588 164.312C115.809 164.645 116.079 164.898 116.398 165.074C116.717 165.25 117.082 165.338 117.492 165.338C118.195 165.338 118.902 165.012 119.611 164.361ZM133.689 164.361L133.455 168.717C132.55 169.081 131.74 169.264 131.023 169.264C129.337 169.264 127.918 168.645 126.766 167.408C125.477 166.021 124.832 164.059 124.832 161.52C124.832 159.143 125.438 157.236 126.648 155.797C127.859 154.365 129.477 153.648 131.502 153.648C132.16 153.648 132.83 153.772 133.514 154.02V158.326C132.908 157.721 132.286 157.418 131.648 157.418C130.815 157.418 130.164 157.773 129.695 158.482C129.227 159.199 128.992 160.188 128.992 161.451C128.992 162.063 129.051 162.61 129.168 163.092C129.285 163.574 129.451 163.98 129.666 164.312C129.887 164.645 130.158 164.898 130.477 165.074C130.796 165.25 131.16 165.338 131.57 165.338C132.273 165.338 132.98 165.012 133.689 164.361ZM139.291 169V153.922H146.859V157.467H143.363V159.664H146.498V163.072H143.363V165.377H146.859V169H139.291ZM152.285 168.629V163.893C153.086 164.986 153.952 165.533 154.883 165.533C155.234 165.533 155.521 165.442 155.742 165.26C155.964 165.071 156.074 164.837 156.074 164.557C156.074 164.153 155.833 163.759 155.352 163.375L154.688 162.857C154.245 162.525 153.867 162.197 153.555 161.871C153.242 161.539 152.988 161.201 152.793 160.855C152.598 160.504 152.454 160.143 152.363 159.771C152.272 159.4 152.227 159.01 152.227 158.6C152.227 157.896 152.389 157.161 152.715 156.393C152.878 156.035 153.066 155.709 153.281 155.416C153.496 155.117 153.743 154.853 154.023 154.625C154.792 153.974 155.719 153.648 156.807 153.648C157.777 153.648 158.753 153.906 159.736 154.42V159.029C159.404 158.515 159.027 158.111 158.604 157.818C158.18 157.519 157.764 157.369 157.354 157.369C157.041 157.369 156.784 157.46 156.582 157.643C156.374 157.818 156.27 158.03 156.27 158.277C156.27 158.681 156.546 159.081 157.1 159.479L157.744 159.957C158.604 160.576 159.219 161.21 159.59 161.861C159.967 162.512 160.156 163.274 160.156 164.146C160.156 165.631 159.704 166.855 158.799 167.818C157.894 168.782 156.748 169.264 155.361 169.264C154.404 169.264 153.379 169.052 152.285 168.629ZM165.426 168.629V163.893C166.227 164.986 167.092 165.533 168.023 165.533C168.375 165.533 168.661 165.442 168.883 165.26C169.104 165.071 169.215 164.837 169.215 164.557C169.215 164.153 168.974 163.759 168.492 163.375L167.828 162.857C167.385 162.525 167.008 162.197 166.695 161.871C166.383 161.539 166.129 161.201 165.934 160.855C165.738 160.504 165.595 160.143 165.504 159.771C165.413 159.4 165.367 159.01 165.367 158.6C165.367 157.896 165.53 157.161 165.855 156.393C166.018 156.035 166.207 155.709 166.422 155.416C166.637 155.117 166.884 154.853 167.164 154.625C167.932 153.974 168.86 153.648 169.947 153.648C170.917 153.648 171.894 153.906 172.877 154.42V159.029C172.545 158.515 172.167 158.111 171.744 157.818C171.321 157.519 170.904 157.369 170.494 157.369C170.182 157.369 169.924 157.46 169.723 157.643C169.514 157.818 169.41 158.03 169.41 158.277C169.41 158.681 169.687 159.081 170.24 159.479L170.885 159.957C171.744 160.576 172.359 161.21 172.73 161.861C173.108 162.512 173.297 163.274 173.297 164.146C173.297 165.631 172.844 166.855 171.939 167.818C171.035 168.782 169.889 169.264 168.502 169.264C167.545 169.264 166.52 169.052 165.426 168.629ZM182.961 169H178.889V153.922H186.086V157.467H182.961V159.664H185.871V163.072H182.961V169ZM197.83 153.922H201.902V164.586C201.902 165.478 201.762 166.201 201.482 166.754C201.209 167.333 200.753 167.857 200.115 168.326C199.256 168.951 198.211 169.264 196.98 169.264C195.587 169.264 194.419 168.919 193.475 168.229C192.277 167.35 191.678 165.943 191.678 164.01V153.922H195.75V163.648C195.75 164.306 195.828 164.771 195.984 165.045C196.147 165.318 196.417 165.455 196.795 165.455C197.186 165.455 197.456 165.328 197.605 165.074C197.755 164.807 197.83 164.335 197.83 163.658V153.922ZM215.15 169H208.021V153.922H212.094V165.377H215.15V169ZM227.49 169H220.361V153.922H224.434V165.377H227.49V169Z" fill="url(#paint1_linear_40000033_1524)"/>
</g>
<defs>
<filter id="filter0_d_40000033_1524" x="12.3535" y="153.648" width="221.137" height="21.6152" filterUnits="userSpaceOnUse" color-interpolation-filters="sRGB">
<feFlood flood-opacity="0" result="BackgroundImageFix"/>
<feColorMatrix in="SourceAlpha" type="matrix" values="0 0 0 0 0 0 0 0 0 0 0 0 0 0 0 0 0 0 127 0" result="hardAlpha"/>
<feOffset dx="4" dy="4"/>
<feGaussianBlur stdDeviation="1"/>
<feComposite in2="hardAlpha" operator="out"/>
<feColorMatrix type="matrix" values="0 0 0 0 0 0 0 0 0 0 0 0 0 0 0 0 0 0 0.25 0"/>
<feBlend mode="normal" in2="BackgroundImageFix" result="effect1_dropShadow_40000033_1524"/>
<feBlend mode="normal" in="SourceGraphic" in2="effect1_dropShadow_40000033_1524" result="shape"/>
</filter>
<linearGradient id="paint0_linear_40000033_1524" x1="63.75" y1="3.74805" x2="183.895" y2="12.6094" gradientUnits="userSpaceOnUse">
<stop stop-color="#FDCD9D"/>
<stop offset="1" stop-color="#F7EF82"/>
</linearGradient>
<linearGradient id="paint1_linear_40000033_1524" x1="12" y1="152" x2="153.878" y2="265.035" gradientUnits="userSpaceOnUse">
<stop stop-color="#FDCD9D"/>
<stop offset="1" stop-color="#F7EF82"/>
</linearGradient>
</defs>
</svg>
