<svg width="40" height="58" viewBox="0 0 40 58" fill="none" xmlns="http://www.w3.org/2000/svg">
<g clip-path="url(#clip0_40000003_91)">
<g style="mix-blend-mode:screen">
<path d="M30.5567 7.98047L12.7556 34.9559H5.24211L0 7.98047H7.82222L11.0994 25.515L22.6971 7.98047H30.5567Z" fill="url(#paint0_radial_40000003_91)"/>
<path d="M17.9117 51.7708C15.9257 51.2305 14.3163 50.5381 13.0859 49.6889L16.2789 43.986C17.6123 44.8609 19.0415 45.5205 20.569 45.9696C22.0965 46.4188 23.6286 46.6433 25.1701 46.6433C26.7117 46.6433 27.7783 46.4305 28.6017 46.0071C29.4251 45.5837 29.8485 44.9989 29.8742 44.2527C29.8953 43.6117 29.5444 43.1088 28.8263 42.7509C28.1058 42.3907 26.9807 42.0071 25.4532 41.5954C23.7222 41.1322 22.2859 40.6644 21.1444 40.1895C20.0029 39.7147 19.0321 38.9895 18.2298 38.0117C17.4275 37.0363 17.0509 35.7521 17.1047 34.1591C17.1678 32.2316 17.7503 30.5427 18.852 29.0924C19.9538 27.6422 21.493 26.517 23.4719 25.7217C25.4508 24.9264 27.7503 24.5264 30.3701 24.5264C32.2976 24.5264 34.0894 24.7252 35.7456 25.1229C37.4017 25.5205 38.8216 26.0936 40.0052 26.8375L37.0438 32.503C36.0123 31.8363 34.8661 31.3287 33.6076 30.9802C32.3468 30.634 31.0485 30.4609 29.7128 30.4609C28.197 30.4609 27.0017 30.7041 26.1245 31.193C25.2473 31.6819 24.7959 32.3112 24.7725 33.0808C24.7514 33.7498 25.1047 34.262 25.8392 34.6223C26.5713 34.9825 27.7152 35.3685 29.2684 35.7778C31.0017 36.2153 32.431 36.6644 33.5585 37.1275C34.6859 37.5907 35.645 38.2971 36.4356 39.2468C37.2263 40.1965 37.5959 41.4433 37.5468 42.9848C37.4836 44.8866 36.8965 46.5638 35.783 48.0141C34.6696 49.4667 33.1163 50.5895 31.1257 51.3848C29.1351 52.1802 26.8403 52.5802 24.2462 52.5802C22.0123 52.5802 19.9 52.3112 17.914 51.7708H17.9117Z" fill="url(#paint1_radial_40000003_91)"/>
<path d="M8.47649 57.6862C8.44141 57.6862 8.40866 57.6815 8.37591 57.6674C8.22386 57.6113 8.15135 57.4405 8.21217 57.2885L31.0145 0.507206C31.0753 0.35282 31.2484 0.275627 31.4005 0.331767C31.5525 0.387908 31.625 0.558668 31.5642 0.710715L8.75954 57.492C8.71041 57.6113 8.59579 57.6862 8.47649 57.6862Z" fill="url(#paint2_radial_40000003_91)"/>
</g>
</g>
<defs>
<radialGradient id="paint0_radial_40000003_91" cx="0" cy="0" r="1" gradientUnits="userSpaceOnUse" gradientTransform="translate(-2.46082 21.8518) scale(34.7041 34.7041)">
<stop offset="0.3" stop-color="#E6E6E6"/>
<stop offset="1" stop-color="#002426"/>
</radialGradient>
<radialGradient id="paint1_radial_40000003_91" cx="0" cy="0" r="1" gradientUnits="userSpaceOnUse" gradientTransform="translate(38.7047 42.7112) scale(26.2503 26.2503)">
<stop offset="0.3" stop-color="#E6E6E6"/>
<stop offset="1" stop-color="#002426"/>
</radialGradient>
<radialGradient id="paint2_radial_40000003_91" cx="0" cy="0" r="1" gradientUnits="userSpaceOnUse" gradientTransform="translate(20.2426 24.437) scale(38.2152 38.2152)">
<stop offset="0.3" stop-color="#E6E6E6"/>
<stop offset="1" stop-color="#002426"/>
</radialGradient>
<clipPath id="clip0_40000003_91">
<rect width="40" height="57.3731" fill="white" transform="translate(0 0.313477)"/>
</clipPath>
</defs>
</svg>
